<?xml version="1.0" encoding="utf-8"?>
<!-- Generator: Adobe Illustrator 24.1.1, SVG Export Plug-In . SVG Version: 6.00 Build 0)  -->
<svg version="1.1" id="Capa_1" xmlns="http://www.w3.org/2000/svg" xmlns:xlink="http://www.w3.org/1999/xlink" x="0px" y="0px"
	 viewBox="0 0 3000 3000" style="enable-background:new 0 0 3000 3000;" xml:space="preserve">
<style type="text/css">
	.st0{fill:#020203;}
</style>
<g>
	<g>
		<polygon class="st0" points="2304.7,1803 2301.6,1798.9 2427.6,1701.1 2474.9,1635.4 2503.9,1620.6 2595.4,1472.3 2595.7,1472.1 
			2715,1355.7 2790.3,1333.2 2814.9,1333.2 2814.9,1316.8 2833.1,1316.8 2889,1282.7 2871.5,1275.7 2903.3,1267.8 2883.2,1254.4 
			2919.8,1254.4 2912.8,1222.4 2941.2,1170.1 2941.2,1101.2 2913.2,1091.3 2940,1070.8 2924.6,1053.7 2944.8,1053.7 2922.5,1021.7 
			2935.7,1010 2920.1,992.8 2946.9,992.8 2939.8,912 2918.4,894.8 2755.3,773.3 2715.9,760.1 2667.8,760.1 2624.5,778.1 
			2572.3,768.8 2556.3,748.5 2498.9,758.8 2422,712.1 2375.6,677.6 2347.6,634.8 2317.2,623.8 2279,660.6 2279,728.1 2267.1,857.1 
			2279.1,951.1 2267.8,982.1 2287.5,991.2 2248,1061 2264.4,1108.8 2250.5,1126.6 2271.9,1126.6 2255.7,1155.7 2326,1247.9 
			2336.9,1260.6 2332.2,1263.3 2355.8,1263.3 2342.3,1281.9 2373.7,1311.3 2467.7,1352.1 2492.2,1331.7 2483.6,1353.2 2499.8,1357 
			2591.7,1367.3 2624.2,1367.3 2624.2,1372.5 2591.2,1372.5 2498.9,1362.1 2476.5,1356.9 2479.8,1348.7 2468.6,1358.1 
			2370.8,1315.6 2335.4,1282.6 2345.7,1268.5 2312.8,1268.5 2328.9,1259.2 2321.9,1251.1 2249.6,1156.1 2263.1,1131.7 
			2239.9,1131.7 2258.7,1107.8 2242.4,1060.5 2280.2,993.6 2261.3,984.8 2273.8,950.5 2261.9,857.2 2262,856.9 2273.8,727.7 
			2273.8,658.4 2315.9,617.8 2350.9,630.6 2379.4,674 2425,707.9 2499.9,753.4 2558.4,742.9 2575.1,764.1 2623.9,772.7 2666.8,755 
			2716.8,755 2757.7,768.6 2921.5,890.7 2944.8,909.3 2944.9,910.4 2952.5,998 2931.7,998 2943,1010.4 2929.4,1022.5 2954.7,1058.9 
			2936.2,1058.9 2947.6,1071.5 2923.9,1089.6 2946.4,1097.6 2946.4,1171.4 2918.3,1223.2 2926.2,1259.5 2900.3,1259.5 
			2915.9,1269.9 2888.2,1276.9 2900.5,1281.8 2834.5,1322 2820,1322 2820,1338.3 2791.1,1338.3 2717.7,1360.3 2599.5,1475.6 
			2507.6,1624.6 2478.3,1639.5 2431.4,1704.7 2431.1,1704.9 		"/>
	</g>
	<g>
		<polygon class="st0" points="2355.2,855.7 2372.5,830.9 2341.4,826.7 2354.9,816 2321,799.1 2346.3,799.1 2309.2,771.8 
			2343.7,771.8 2319.5,738.9 2337.9,742.4 2312.9,707.9 2329,713.4 2300.2,681 2304.1,677.6 2345.7,724.5 2326.6,718 2349.7,749.9 
			2331.4,746.4 2353.8,777 2324.9,777 2362.1,804.2 2342.8,804.2 2364.4,815 2354.1,823.2 2381.5,826.9 2367.1,847.7 2394.7,841.3 
			2395.9,846.3 		"/>
	</g>
	<g>
		<polygon class="st0" points="2314.9,917 2310,915.5 2320.4,881.1 2291.7,871.5 2315.9,864.2 2279.4,849.1 2315.1,849.1 
			2271.6,820 2319.2,820 2286.8,762.9 2303.7,762.9 2293.1,743.1 2304.2,743.1 2284.4,692 2289.2,690.1 2311.8,748.2 2301.7,748.2 
			2312.3,768.1 2295.7,768.1 2328,825.2 2288.6,825.2 2332.1,854.3 2305.4,854.3 2331.3,865 2308.7,871.8 2326.8,877.8 		"/>
	</g>
	<g>
		<polygon class="st0" points="2916.5,889.8 2912,887.3 2925.2,863.9 2925.2,706 2899.9,638.8 2880.6,613.4 2852.7,638.2 
			2767.8,735.4 2724.9,762.1 2722.1,757.7 2764.5,731.4 2849,634.6 2881.3,605.9 2904.4,636.3 2904.6,636.6 2930.4,705.1 
			2930.4,865.3 		"/>
	</g>
	<g>
		<polygon class="st0" points="2764,777.6 2761.1,773.3 2808.9,740.5 2844.2,689.7 2871.5,631.6 2894,631.6 2900.2,651.3 
			2895.2,652.8 2890.2,636.8 2874.8,636.8 2848.7,692.3 2812.6,744.2 		"/>
	</g>
	<g>
		<polygon class="st0" points="2873.1,840.8 2846.7,840.8 2846.7,835.6 2857.6,835.6 2852.2,831.5 2873.4,815.1 2850.4,815.1 
			2886.1,778 2852,778 2873.1,741.6 2855.6,741.6 2882.6,720.8 2856,724.9 2887.3,692.3 2869.7,687.1 2880.8,660 2885.6,661.9 
			2876.6,683.8 2896.9,689.8 2870.3,717.4 2901.7,712.6 2870.7,736.4 2882.1,736.4 2860.9,772.8 2898.2,772.8 2862.5,810 
			2888.5,810 2860.7,831.5 		"/>
	</g>
	<g>
		<polygon class="st0" points="2884.1,866.2 2880.1,862.9 2907.8,829.6 2887,829.6 2906.9,802.4 2887.6,807.5 2909.8,757.5 
			2891.4,750.3 2909.5,736.4 2904.4,730.9 2910.4,698.1 2898.5,692.7 2898.5,679.3 2903.6,679.3 2903.6,689.4 2916.2,695.1 
			2909.9,729.3 2917.1,737.1 2901.8,748.8 2916.8,754.6 2896.7,799.8 2919.7,793.7 2897.2,824.5 2918.8,824.5 		"/>
	</g>
	<g>
		<polygon class="st0" points="2288.5,964.6 2285.1,960.8 2331.4,918.8 2298.1,918.8 2366.1,893.5 2357,888.4 2409.2,862.9 
			2410.6,834.8 2426.1,825.5 2441.7,800.1 2433.1,747 2372.6,695.4 2372.5,695.2 2344.7,658.7 2318.7,650.5 2302,667.2 
			2298.4,663.6 2317.3,644.6 2347.8,654.3 2376.4,691.9 2437.8,744.3 2447.1,801.2 2429.9,829.3 2415.7,837.8 2414.2,866.2 
			2368.2,888.7 2378.4,894.4 2326.8,913.6 2344.8,913.6 		"/>
	</g>
	<g>
		<path class="st0" d="M2770.9,1021.7h-55.6l9.7-30.5l29.7-27.7h50.7l30.3,14.6l-2.2,4.6l-6.9-3.3L2815,997l-15.4,18.5
			L2770.9,1021.7z M2722.4,1016.6h48l26.4-5.7l14.2-17l11-16.6l-17.7-8.5h-47.4l-27.2,25.4L2722.4,1016.6z"/>
	</g>
	<g>
		<path class="st0" d="M2538.8,1025.5l-44.1-3.8l-40-30.7l-4.4-18.9l-5,0.6l-33.2,22.2l-2.9-4.3l34.2-22.9l33.6-4.1h57.2l18.8,24.1
			l19.8,33.6L2538.8,1025.5z M2496.6,1016.6l42.1,3.6l25.8-3.2l-15.7-26.7l-17-21.7h-54.6l-21.8,2.6l3.9,16.6L2496.6,1016.6z"/>
	</g>
	<g>
		<polygon class="st0" points="2474.7,1001.2 2469.5,1000.9 2470.8,974.7 2479.2,964.5 2483.2,967.8 2475.9,976.7 		"/>
	</g>
	<g>
		<polygon class="st0" points="2540.8,1024.4 2536.7,1021.3 2547,1007.8 2548.3,988.8 2553.5,989.1 2552,1009.7 		"/>
	</g>
	<g>
		<polygon class="st0" points="2738.2,1020.1 2731.1,1001.2 2732.9,984.7 2738,985.3 2736.3,1000.5 2743.1,1018.2 		"/>
	</g>
	<g>
		<polygon class="st0" points="2807.4,1005.2 2802.2,1005.2 2802.2,980.1 2796.5,967.2 2801.2,965.1 2807.4,979 		"/>
	</g>
	<g>
		<polygon class="st0" points="2515.9,1012.8 2504,997.5 2501.1,975.1 2507,965.6 2511.4,968.3 2506.5,976.3 2509,995.5 
			2516.2,1004.7 2526.5,993.3 2528.9,981.3 2527.1,967.3 2532.2,966.6 2534.1,981.5 2531.3,995.7 		"/>
	</g>
	<g>
		<polygon class="st0" points="2769.9,1008.6 2753.6,999.2 2750.9,979.3 2750.9,968.3 2756,968.3 2756,979.1 2758.4,996 
			2768.4,1001.8 2775.2,991.8 2775.2,977.6 2773.1,968.9 2778.1,967.6 2780.4,977 2780.4,993.5 		"/>
	</g>
	<g>
		<polygon class="st0" points="2674.8,1256.2 2673.6,1246.9 2656.9,1246.9 2642.1,1238 2642.1,1223.6 2653.1,1211.4 2664.7,1206.2 
			2689.4,1202.7 2714.1,1210.1 2730.6,1228.7 2724.1,1241.7 2708.3,1245.7 2705.4,1254.4 2700.5,1252.8 2704.3,1241.4 
			2720.5,1237.3 2724.4,1229.5 2711.2,1214.6 2689,1207.9 2666.2,1211.2 2656.2,1215.6 2647.2,1225.6 2647.2,1235.1 2658.4,1241.8 
			2678.1,1241.8 2679.9,1255.5 		"/>
	</g>
	<g>
		<polygon class="st0" points="2689.3,1274.2 2676,1265.7 2657,1261.1 2646.1,1248.2 2642.2,1237.4 2647.1,1235.7 2650.6,1245.6 
			2659.8,1256.5 2678,1260.9 2689.2,1268 2699.9,1260.3 2710.7,1255.8 2720.4,1249.8 2725,1228.5 2730,1229.6 2725,1253 
			2712.9,1260.5 2702.4,1264.8 		"/>
	</g>
	<g>
		<polygon class="st0" points="2613.7,1303.1 2612.9,1298 2629.2,1295.5 2675.7,1295.5 2686.7,1290.5 2686.7,1271.1 2691.8,1271.1 
			2691.8,1293.8 2676.8,1300.7 2629.4,1300.7 		"/>
	</g>
	<g>
		<polygon class="st0" points="2689.4,1342.8 2663.6,1342.8 2612.1,1331.2 2586.6,1307.7 2572.5,1287.3 2576.8,1284.4 
			2590.5,1304.3 2614.6,1326.4 2664.1,1337.6 2689.1,1337.6 2720.2,1334.3 2740.5,1314.9 2745.6,1303.1 2701.2,1303.1 
			2687.8,1294.3 2690.7,1290 2702.8,1298 2753.5,1298 2744.8,1317.9 2722.5,1339.2 		"/>
	</g>
	<g>
		<polygon class="st0" points="2751.7,1302.1 2747.5,1299.1 2765.2,1274.5 2773.8,1255.9 2759.4,1226.1 2764,1223.9 2779.5,1255.8 
			2769.5,1277.3 		"/>
	</g>
	<g>
		<polygon class="st0" points="2580.9,1298.8 2557.7,1287.8 2549.4,1273.7 2500.8,1273.7 2517.9,1258.4 2492.8,1258.4 
			2500.2,1244.9 2462.4,1229.2 2501.3,1211.8 2444,1200.4 2481.7,1187.8 2428.7,1169.5 2430.3,1164.6 2497.7,1187.9 2464.1,1199.1 
			2518.2,1209.9 2475.4,1229 2507.5,1242.3 2501.5,1253.3 2531.4,1253.3 2514.3,1268.5 2552.4,1268.5 2561.4,1283.8 2583.1,1294.2 
					"/>
	</g>
	<g>
		<path class="st0" d="M215.9,2103.9l-37.4-146.7l-15.6,118.6l-15.8-113.9l-25.6,88.3l-23.6-67.5l0-0.5l2.9-77.6H78.3l23.8-44.6
			H47.4l56.5-68.4H62.2l35.7-23.8H45.3l53.5-41.6h-37l29.7-32.7H61.5l46.2-46.2l366.7-307.5l-12.4-15.5l24.7-11.4l-25.5-11.9
			l59.9-47.4l44.5-30.8l71.6-58.2l0.4-0.1l368.9-130.2l0.3,0l258.8-28.3l0.2,0l222.9,10.4l285.1,17.8l181.3-36l0.3,0l85.5,4.1
			l38.9-21.8l31.7,8.8l14.3-28.8l141.5-74.5l2.4,4.6l-140,73.7l-15.4,31.1l-33.7-9.3l-38.4,21.4l-86.6-4.2l-181.3,36l-0.3,0
			l-285.4-17.8l-222.7-10.4l-258.1,28.2l-367.9,129.8l-71.2,57.8l-44.5,30.8l-53.1,42.1l28,13l-28.8,13.3l11.4,14.3l-370.5,310.7
			L74,1688.4h29.3l-29.7,32.7h40.3l-53.5,41.6h54.5l-35.7,23.8h35.6l-56.5,68.4h52.3l-23.8,44.6h19.2l-3.1,82.4l18,51.4l27.9-96
			l13.9,100.1l14.1-107.3l39.9,156.5l20.1-54.5l17.5,37.8l18.9-70l-3-79.9l5.1-0.7l13.2,57.9l31.9-70.2L320,1920
			c-0.8,24.9-0.7,62.2,1.8,71.8c9.5-17.4,40.4-101.6,40.8-102.5l3.2-8.6l9.1,45.4l27.8-64.9l3,53.6l29-66.7l4.5,31.5l13.2-29.1
			l9.5,15.8l18.5-24.2l18,12.4l6.1-37.9l20,18.6v-37l18.6,28.7l15.1-31.5h22.7l-1.6-42.9l20.2,15.6l2.9-18.7l25.6,14.2l-4.3-40.2
			l44,8.9l-4.8-63l26.6,33.9l17.7-64.2l24.6,26.8l12.8-42.7l30.5,8.7l2.3-43.2l24.3,13.3v-53.7l22.7,13.7l4.8-48l15.8,24.8l6.1-49.6
			l24.4,2.9l-15.9-30.1l4.5-47.1l-17.8-60.1l2.2-71.8l5.2,0.2l-2.2,70.9l17.9,60.3l-4.4,46.5l19.8,37.4l-29.1-3.4l-7.3,58.7
			l-15.5-24.3l-4.1,41.3l-21.9-13.2v53.3l-24.7-13.5l-2.2,41.5l-31.9-9.1L734,1676l-24.4-26.7l-18,65.1l-22.4-28.5l4.1,52.9
			l-43.7-8.9l4.6,43.1l-27.9-15.5l-3.1,20l-18.4-14.2l1.4,37.3h-24.8l-17.6,36.9l-14.1-21.8v31.4l-21.6-20.1l-5.8,36.4l-20.7-14.3
			l-20.1,26.3l-8.3-13.9l-16.5,36.3l-4.4-30.9l-30.4,70l-3-53.4l-25.7,59.9l-8.8-43.8c-8.5,22.8-31.3,83.6-38.7,95.9
			c-1.8,3-3.7,3.2-5,2.8c-2.4-0.7-4.1-3.4-5.1-14.9c-0.6-6.4-0.9-15.3-1-26.2c-0.1-8.9,0-17.8,0.1-24.7l-27.7,60.9l-10.4-46l2,53.1
			l-22.8,84.5l-18.2-39.5L215.9,2103.9z"/>
	</g>
	<g>
		<polygon class="st0" points="2669.4,2360.2 2666,2344.9 2649.7,2330.7 2627.1,2315.6 2573.9,2315.6 2441.1,2234.7 2369.2,2133.6 
			2369.1,2133.3 2335.6,2046.1 2335.5,2045.8 2293.1,1737.6 2322.2,1639 2327.2,1640.4 2298.4,1738 2340.6,2044.8 2373.8,2131.2 
			2444.7,2230.8 2575.4,2310.4 2628.7,2310.4 2653,2326.7 2670.6,2342.1 2674.5,2359.1 		"/>
	</g>
	<g>
		<polygon class="st0" points="2619.4,2409.7 2593,2400.1 2546.5,2400.1 2487.8,2380 2487.6,2379.8 2412.2,2331.1 2348.1,2320.4 
			2348.1,2296.9 2332.6,2309.6 2323.6,2257.4 2293.2,2280.3 2293.2,2229.1 2217.7,2122.6 2217.6,2122.4 2108.6,1902.2 
			2030.6,1838.9 2040.2,1817.6 1975.1,1802.1 2006.5,1780.5 1961.2,1780.5 2018.9,1685.8 2018.9,1625.9 2019.1,1625.5 
			2099.3,1391.4 2104.2,1393.1 2024.1,1626.7 2024.1,1687.2 1970.4,1775.3 2023.1,1775.3 1987.6,1799.8 2047.4,1814 2036.9,1837.4 
			2112.8,1898.9 2113,1899.4 2222.2,2119.9 2298.3,2227.5 2298.3,2269.9 2327.3,2248.2 2336.2,2300 2353.3,2286 2353.3,2316 
			2414.1,2326.2 2414.6,2326.4 2490.1,2375.3 2547.4,2394.9 2594,2394.9 2619.1,2404.1 2638,2395.1 2640.2,2399.8 		"/>
	</g>
	<g>
		<path class="st0" d="M2667.7,2419.4l-29.4-19.4h-37.7l13-19.4l-9.5-42.6l29.9,18.9l19.6,25.9l0.1,0.3L2667.7,2419.4z
			 M2610.2,2394.9h29.6l17.2,11.3l-8.1-20.9l-18.6-24.6l-18.6-11.8l7.3,32.7L2610.2,2394.9z"/>
	</g>
	<g>
		<polygon class="st0" points="2653.9,2384.1 2648.7,2384.1 2648.7,2369.6 2638,2334.6 2611.3,2326.3 2576.3,2335.1 2575,2330.1 
			2611.4,2321 2642.1,2330.5 2653.9,2368.8 		"/>
	</g>
	<g>
		<polygon class="st0" points="2702.4,2410.2 2678.3,2394.5 2652.7,2391.3 2653.4,2386.1 2680.1,2389.5 2692.6,2397.7 
			2686.4,2379.5 2660,2350.2 2660,2358.3 2652,2367.1 2648.2,2363.6 2654.8,2356.3 2654.8,2336.7 2690.9,2376.8 		"/>
	</g>
	<g>
		<polygon class="st0" points="701.3,2439.4 701.3,2422.2 706.5,2422.2 706.5,2429.6 724.3,2417.3 724.3,2430.5 732.8,2426.7 
			751.5,2415.2 751.5,2368 741.4,2334.6 741.4,2180.8 741.7,2180.3 835.7,1997.8 921.5,1951.6 922,1951.5 1086.4,1924.8 
			1277.3,1799 1427.7,1619.2 1370.2,1495.8 1370.2,1495.4 1352.3,1340.5 1357.5,1339.9 1375.2,1494.4 1433.7,1620 1280.8,1802.9 
			1280.5,1803.1 1088.3,1929.8 1087.8,1929.8 923.2,1956.5 839.6,2001.6 746.6,2182.1 746.6,2333.8 756.6,2367.2 756.6,2418.1 
			735,2431.3 719.1,2438.5 719.1,2427.2 		"/>
	</g>
	<g>
		<path class="st0" d="M701.7,2421.4h-17.1l-6.1-18.4l-5.6-26.5l6.5-18.9l17.9-11.3l14,24.7l2.6,33.2L701.7,2421.4z M688.4,2416.2
			h10.7l9.6-13.5l-2.4-30.2l-10.8-18.9l-11.8,7.5l-5.4,15.8l5.3,24.9L688.4,2416.2z"/>
	</g>
	<g>
		<path class="st0" d="M643.2,2359.4l-23.4-7.2l-13.7-17.4V2316l11.6-19.7l14.8,13.1l31.1-5.6l13.7-7.3l7.2,29.9l-36.5,15.2
			L643.2,2359.4z M622.9,2347.7l16.7,5.2l4.1-15l34.8-14.5l-4.6-19.1l-8.6,4.6L631,2315l-12-10.6l-7.7,13v15.5L622.9,2347.7z"/>
	</g>
	<g>
		
			<rect x="671.2" y="2349.6" transform="matrix(0.9608 -0.2772 0.2772 0.9608 -626.7296 279.0815)" class="st0" width="5.2" height="13.4"/>
	</g>
	<g>
		<path class="st0" d="M653.6,2438.8l-15.9-18.7l-6.9-23.3l12.7-14.3l11.3-9.4l11.9,21.1v25.5L653.6,2438.8z M642.3,2417.5
			l10.8,12.7l8.4-12.3v-22.6l-8.2-14.5l-6.4,5.3l-10.4,11.8L642.3,2417.5z"/>
	</g>
	<g>
		<path class="st0" d="M633.9,2435.3c-0.2,0-0.4,0-0.6-0.1c-2.8-0.4-9.9-4-12-5.1l-0.5-0.3l-12-16v-24.4l8.1-21l18.8,24l-4.1,3.2
			l-13.2-16.9l-4.5,11.7v21.7l10.3,13.7c3.5,1.8,7.7,3.7,9.4,4.2c1.3-1,4.4-5.1,6.8-9.4l4.5,2.6
			C638.6,2434.1,635.4,2435.3,633.9,2435.3z"/>
	</g>
	<g>
		<polygon class="st0" points="604.2,2426.7 594.2,2406.1 597.3,2380.9 609,2359.6 616.3,2375.9 611.6,2378 608.5,2371.2 
			602.3,2382.5 599.5,2405.3 606.6,2420 614.7,2416.4 616.8,2421.1 		"/>
	</g>
	<g>
		<polygon class="st0" points="702.4,2464.3 706.3,2445.8 701.7,2438.5 706.1,2435.7 711.8,2444.8 710.5,2450.8 724,2439.7 
			726,2433.7 730.8,2435.3 728.4,2442.7 		"/>
	</g>
	<g>
		
			<rect x="693.9" y="2417.2" transform="matrix(0.625 -0.7806 0.7806 0.625 -1633.1777 1453.6631)" class="st0" width="5.2" height="19"/>
	</g>
	<g>
		<polygon class="st0" points="654.6,2479.6 658.1,2458.1 653.8,2451.5 658.1,2448.7 663.5,2457 662.1,2465.2 676,2452 
			679.1,2442.8 684,2444.4 680.5,2454.9 		"/>
	</g>
	<g>
		<polygon class="st0" points="633.3,2463.1 636.5,2450.6 628.8,2454.1 628.8,2447.3 620.8,2450.2 624.3,2438.6 620.1,2428.8 
			624.9,2426.8 629.7,2438.3 628.7,2441.9 634,2439.9 634,2446.1 644.2,2441.4 641.5,2452 654.3,2444 666.7,2430.5 666.7,2441.6 
			674.5,2437.1 674.5,2445.3 679.7,2441.7 691.4,2425.2 695.6,2428.2 683.4,2445.5 669.3,2455 669.3,2446 661.5,2450.5 
			661.5,2443.7 657.6,2448 		"/>
	</g>
	<g>
		<polygon class="st0" points="651.4,2451 646.4,2449.8 647.3,2445.7 642.6,2447 642.6,2437.5 640.1,2436 640.1,2426.7 
			645.2,2426.7 645.2,2433 647.7,2434.5 647.7,2440.3 654.2,2438.5 		"/>
	</g>
	<g>
		<polygon class="st0" points="634.4,2479.8 637.8,2457.2 642.9,2457.9 641.8,2465 650.6,2456.2 653.4,2445.4 658.4,2446.7 
			655.3,2458.9 		"/>
	</g>
	<g>
		<polygon class="st0" points="610.3,2447.2 613.1,2441.7 606.4,2444.3 608.7,2434.5 606.2,2423.9 611.3,2422.8 614,2434.5 
			613.7,2435.8 623.8,2431.8 621.1,2437.1 623.4,2436.2 625.3,2440.9 		"/>
	</g>
	<g>
		<polygon class="st0" points="621.3,2373.5 618.5,2369.2 625.6,2364.4 622,2355.2 626.8,2353.3 632,2366.4 		"/>
	</g>
	<g>
		<polygon class="st0" points="638.7,2395.4 633.9,2393.4 642.4,2373.6 638.3,2363.8 643.1,2361.8 648,2373.6 		"/>
	</g>
	<g>
		<polygon class="st0" points="656.5,2377.9 651.7,2375.9 657.2,2362.8 651.7,2348.9 656.5,2347 662.8,2362.8 		"/>
	</g>
	<g>
		<polygon class="st0" points="611.1,2363.5 606.4,2361.4 610.9,2351.3 608.6,2339.9 613.7,2338.9 616.3,2352 		"/>
	</g>
	<g>
		<polygon class="st0" points="595.7,2473.2 612.2,2451.3 613.2,2443.3 618.3,2443.9 617.2,2453.3 615.2,2456 620.7,2452.8 
			626.2,2445.3 630.4,2448.3 624.3,2456.7 		"/>
	</g>
	<g>
		<polygon class="st0" points="608.8,2312.6 603.6,2256.6 646.5,2191.5 701.4,2011.3 737.3,1861 800.2,1825 848.6,1759 
			870.6,1666.7 842,1603.9 839.8,1662.1 801.8,1576.1 806.6,1574 835.5,1639.6 837.7,1581.9 876,1666.2 853.4,1761.2 853.1,1761.6 
			803.7,1828.9 741.8,1864.3 706.3,2012.8 651.2,2193.7 608.9,2257.9 613.9,2312.1 		"/>
	</g>
	<g>
		<path class="st0" d="M2027.8,2109.3l-20.6-29.3l4.8-35.4l1.6-0.5c8.2-2.3,49.6-14,53.7-14h0.5l26.3,9.7l-16.8,25.2
			c-8.8,11.3-23.1,29.7-24.1,31.4c-1.3,2.1-9.2,6.2-23.5,12L2027.8,2109.3z M2012.6,2078.7l17.1,24.2c8.5-3.5,17.8-7.8,19.2-9.2
			c2.1-3.2,21.7-28.5,24.3-31.8l13-19.5l-19.2-7.1c-4.5,0.6-32.2,8.2-50.3,13.3L2012.6,2078.7z M2048.9,2093.7L2048.9,2093.7
			L2048.9,2093.7z"/>
	</g>
	<g>
		<path class="st0" d="M2131.1,2033.6l-27.3-4.1l-2.6-29.4l2-0.6c26.4-8,27.4-7.7,28.3-7.4l0.4,0.2l15.8,8.1l15.7,22.9l-13.8,2
			L2131.1,2033.6z M2108.6,2025l21.8,3.3l17.8-8l6.3-0.9l-10.3-15l-14-7.2c-2.7,0.5-13.4,3.6-23.5,6.7L2108.6,2025z"/>
	</g>
	<g>
		<polygon class="st0" points="2015.6,2141.6 1994.8,2130.5 1984.6,2095.2 1995.5,2059.4 2012.3,2049.3 2015,2053.8 1999.9,2062.8 
			1990,2095.3 1999.2,2126.9 2011.7,2133.6 2014.5,2115.7 2018,2094.2 2023.1,2095 2019.6,2116.5 		"/>
	</g>
	<g>
		<polygon class="st0" points="2054.5,2162.7 2000.3,2162.7 2045.2,2146.9 2047.4,2129.6 2052.6,2130.3 2049.9,2150.7 
			2030.3,2157.6 2053.4,2157.6 2086.1,2142.7 2088.2,2147.4 		"/>
	</g>
	<g>
		<polygon class="st0" points="2067.5,2164.3 2086.6,2146.6 2062.1,2142.1 2069.9,2132.5 2029.3,2132.5 2049,2121.3 2024.6,2119 
			2039.9,2106.6 2043.2,2110.6 2037.7,2115.1 2065.8,2117.7 2048.9,2127.4 2080.7,2127.4 2071.6,2138.6 2097.6,2143.5 2084,2156 
			2096.6,2153.8 2116.5,2140.2 2116.5,2151 2129.8,2139.4 2154.6,2117.8 2179.3,2106.5 2201.2,2085.3 2204.8,2089 2182.3,2110.8 
			2157.4,2122.2 2133.2,2143.3 2111.3,2162.4 2111.3,2149.9 2098.6,2158.6 		"/>
	</g>
	<g>
		<polygon class="st0" points="2055.6,2038.1 2053.9,2033.2 2091.8,2019.8 2101.7,2000.8 2106.3,2003.2 2095.4,2024 		"/>
	</g>
	<g>
		<polygon class="st0" points="2116.2,2000 2111.4,1998.1 2121.4,1973.6 2129,1942 2134,1943.2 2126.2,1975.3 		"/>
	</g>
	<g>
		<polygon class="st0" points="2009.9,2162.7 1960.6,2162.7 1999.9,2150.2 2003.9,2136.9 2008.9,2138.4 2004,2154.3 1993.7,2157.6 
			2009.9,2157.6 		"/>
	</g>
	<g>
		<polygon class="st0" points="2037.6,2153.8 2020.8,2153.8 2024.1,2146 2016.8,2148.4 2012.9,2126.6 2018,2125.7 2020.8,2141.7 
			2033.3,2137.6 2028.6,2148.7 2037.6,2148.7 		"/>
	</g>
	<g>
		<polygon class="st0" points="1070.1,2393.3 1039,2386.9 969.1,2379.4 843.1,2248.8 842.9,2248.6 815.1,2202.7 786.8,2146.9 
			842.5,2033.7 842.5,1995.6 847.7,1995.6 847.7,2034.9 792.6,2146.9 819.7,2200.3 847.2,2245.6 971.5,2374.4 1039.9,2381.8 
			1068.9,2387.8 1080.3,2379.3 1083.4,2383.5 		"/>
	</g>
	<g>
		<path class="st0" d="M1091.9,2357.8l-6.2-15.6l-20.6-14.6l-25.7,9.2l-0.8-0.2c-11.7-3.5-30.9-9-32.8-9.3c0.1,0,0.2,0,0.2,0v-5.2
			c0.5,0,1.8,0,33.2,9.3l26.6-9.6l24,17.1l6.7,17.1L1091.9,2357.8z"/>
	</g>
	<g>
		<path class="st0" d="M1119.5,2387.6l-25.3-3.9l-29,0.6l18.6-16.6l-3-25l27.7,20.6L1119.5,2387.6z M1094.5,2378.5l16.3,2.5
			l-6.6-14.4l-16.9-12.6l1.9,15.7l-10.2,9.1L1094.5,2378.5z"/>
	</g>
	<g>
		<polygon class="st0" points="1103.3,2340.7 1098.1,2340.7 1098.1,2329.2 1080.9,2309.1 1044.7,2315 1015.5,2302.5 1015.1,2302 
			933.2,2200.1 941,2061.3 1030.1,1934.8 1034.3,1937.7 946.1,2063.1 938.4,2198.5 1018.7,2298.2 1045.3,2309.6 1082.9,2303.5 
			1103.3,2327.3 		"/>
	</g>
	<g>
		<polygon class="st0" points="1130.1,2388.8 1109.2,2376.6 1111.8,2372.2 1124.9,2379.8 1124.9,2366.5 1102,2344.7 1103.7,2348.2 
			1096.4,2358.4 1092.2,2355.3 1097.7,2347.7 1085,2321.4 1130.1,2364.3 		"/>
	</g>
	<g>
		<polygon class="st0" points="1948,1804.8 1937.1,1772 1926.8,1792.6 1886.3,1770.8 1822.8,1770.8 1506,1735.1 1505.7,1735.1 
			1370,1693.8 1371.5,1688.9 1507,1730.1 1823.2,1765.7 1887.6,1765.7 1924.5,1785.5 1938,1758.6 1950.8,1797.1 1986,1775.7 
			1988.7,1780.1 		"/>
	</g>
	<g>
		<polygon class="st0" points="2297.2,1071.8 2294.3,1067.6 2335.9,1039.3 2393.8,998.9 2396.8,1003.1 2338.8,1043.6 		"/>
	</g>
	<g>
		<polygon class="st0" points="2644.6,1208.1 2580.2,1180.2 2541.2,1119.4 2594,1088.1 2572.4,1048.6 2576.9,1046.2 2600.9,1090 
			2548.4,1121.1 2583.7,1176.1 2644.7,1202.5 2689,1185.9 2738.8,1193.2 2747.7,1164.5 2759,1164.5 2747.2,1127.5 2707.6,1070.2 
			2716.3,1034.7 2721.3,1036 2713.2,1069.2 2751.9,1125.2 2766.1,1169.6 2751.5,1169.6 2742.5,1198.9 2689.5,1191.2 		"/>
	</g>
	<g>
		
			<rect x="2874.1" y="970.5" transform="matrix(0.4505 -0.8928 0.8928 0.4505 684.4204 3120.0193)" class="st0" width="5.2" height="67.1"/>
	</g>
	<g>
		<polygon class="st0" points="2576.4,985.5 2572.9,981.7 2593.5,962.8 2564.6,938.8 2591.3,917.8 2530.5,907.4 2569.4,888.2 
			2516.3,853.9 2519.1,849.5 2579.9,888.9 2547,905 2603.6,914.7 2572.8,938.9 2601.4,962.6 		"/>
	</g>
	<g>
		<path class="st0" d="M2717.1,976.5l-47-41.2l3.4-1.7c10.2-5.2,21.8-11.5,26.7-14.8c-8.1-3.5-24.5-12.2-26.7-13.3l-3.5-1.9
			l32.9-25.5l-22.8-14.3l42.5-14.6l1.7,4.9l-32.3,11.1l19.9,12.5l-32.4,25.1c9.7,5.1,22.9,11.7,25.6,12.3c1.3,0.3,2.2,1.3,2.4,2.5
			c0.2,1.8,0.5,4.2-28.1,18.8l41.2,36.1L2717.1,976.5z"/>
	</g>
	<g>
		<path class="st0" d="M2488.4,1547.5c-2.6,0-8.3-3-30.2-30.7c-12-15.2-23.3-30.7-23.4-30.9l-0.2-0.2l-43.8-76.7h23.3l-23.3-33.5
			l33.7-5.9l-31.3-36.7l3.9-3.3l37.1,43.6l-34.7,6l24.3,34.9h-24.3l39.3,68.8c19.1,26.4,41.3,54.1,48.3,58.7
			c1.4-13,0.3-73.9-0.3-97.4l0-1.6l40.4-20.1l-26.2-31.8l36.9-10l1.3,5l-29.1,7.9l25.3,30.6l-43.2,21.5c0.3,12.6,2,88.6-0.1,98.5
			c-0.3,1.6-1.4,2.7-2.8,3C2489.1,1547.4,2488.8,1547.5,2488.4,1547.5z"/>
	</g>
	<g>
		<polygon class="st0" points="1663.5,1453.9 1556.7,1299.5 1515,1312.7 1477.3,1275.8 1485.9,1344.7 1420.9,1311.5 1407,1413.1 
			1342.1,1307.4 1317.5,1371.8 1297.2,1307.9 1252.7,1352.4 1252.7,1300.2 1091.4,1219.5 1003.5,1234.8 1003.5,1178.7 929.9,1178.7 
			955.6,1150.7 833.7,1169.6 664.7,1207.8 663.5,1202.8 832.8,1164.5 969.4,1143.3 941.7,1173.6 1008.7,1173.6 1008.7,1228.6 
			1092.2,1214.1 1093,1214.5 1257.9,1297 1257.9,1339.9 1299.6,1298.2 1318,1356.1 1341,1295.7 1403.8,1398.1 1416.7,1303.5 
			1479.5,1335.7 1470.3,1261.9 1516.4,1306.8 1558.8,1293.5 1559.9,1295 1661.6,1442.1 1678.3,1385.8 1712.4,1444.2 1792.2,1387.2 
			1792.2,1417 1860.6,1312.3 1905.7,1360.4 2055.1,1228 2156.4,1356.5 2156.4,1249.4 2180,1208 2269.5,1228.2 2303.2,1247.9 
			2300.6,1252.3 2267.6,1233 2182.6,1213.8 2161.6,1250.8 2161.6,1371.4 2054.5,1235.5 1905.4,1367.6 1861.3,1320.6 1787.1,1434.3 
			1787.1,1397.2 1710.8,1451.7 1679.8,1398.7 		"/>
	</g>
	<g>
		<polygon class="st0" points="608.8,1725.2 603.8,1723.7 630.8,1632.9 569.4,1657 578.2,1565 425.4,1644.8 448,1570.3 
			372.4,1596.9 401.7,1484.4 323,1494.5 322.3,1489.3 408.6,1478.4 379.9,1588.8 455.9,1562.1 433.9,1634.6 584.3,1556.1 
			575.3,1649.1 638.7,1624.2 		"/>
	</g>
	<g>
		<path class="st0" d="M586.3,1373.7l27.2-37.9l-64.4,18.5l26.9-39.1l-36.1-17.7l28.9-14.8l-30.5-5.1l42.4-25.3l-31-5.2l74-46.1
			l-9.5,48.5c10.3,1.3,45.8,5.8,50.7,7.2c1.3,0.4,2.2,1.4,2.4,2.6c0.2,1.9,0.5,3.9-19.3,15.9c-5.3,3.2-10.7,6.3-14.3,8.3l58.7,29
			L586.3,1373.7z M626.3,1326.7l-21.9,30.5l76.9-44.4l-58.8-29l4.3-2.4c13.4-7.4,27.8-16.1,33.2-20.4c-10.2-1.7-38-5.3-49.4-6.7
			l-2.7-0.3l8.3-42.2l-52.3,32.6l31.4,5.2l-42.4,25.3l32,5.3l-33.6,17.2l32.2,15.8l-22.1,32.2L626.3,1326.7z"/>
	</g>
	<g>
		<polygon class="st0" points="1160.4,1870.4 1086.3,1860.8 1119.8,1827.3 1039,1827.3 1076.6,1778.3 1016.1,1778.3 1007.7,1725.9 
			948.6,1687.3 924.3,1734.4 852.4,1777.9 849.7,1773.5 920.4,1730.8 946.7,1679.8 1012.4,1722.9 1020.5,1773.1 1087.1,1773.1 
			1049.5,1822.2 1132.2,1822.2 1097.3,1857 1161,1865.3 		"/>
	</g>
	<g>
		<path class="st0" d="M1824.7,1705.2l-18.1-18.8l-68.8,18.5l-0.9-0.6l-97.4-59.3l8.7,43l-166.3-74.9l1.7-4.8l103.7,28.4l18.1-49.9
			l100.8,67.2l20.9-34.8l36.8,61.3l128.6-50.6l-33.1,31.1l133.3-39.3l1.8,4.8L1824.7,1705.2z M1632.1,1634.4l106.6,64.9l69.6-18.7
			l17.6,18.4l134.9-62.6l-120.6,35.6l29.3-27.6l-107.7,42.3l-34.6-57.6l-19.2,32.1l-99.8-66.6l-17.5,48.2l-76.5-20.9l127.1,57.2
			L1632.1,1634.4z"/>
	</g>
	<g>
		<polygon class="st0" points="2203.8,1790.9 2134.1,1732.2 2134.1,1761.8 2036.6,1720.1 2038.6,1715.4 2128.9,1753.9 
			2128.9,1721.1 2202.3,1782.8 2232.6,1727 2268.1,1758.5 2278,1744.6 2282.2,1747.6 2268.9,1766.1 2234,1735.2 		"/>
	</g>
</g>
</svg>
