<?xml version="1.0" encoding="utf-8"?>
<!-- Generator: Adobe Illustrator 24.1.1, SVG Export Plug-In . SVG Version: 6.00 Build 0)  -->
<svg version="1.1" id="Capa_1" xmlns="http://www.w3.org/2000/svg" xmlns:xlink="http://www.w3.org/1999/xlink" x="0px" y="0px"
	 viewBox="0 0 3000 3000" style="enable-background:new 0 0 3000 3000;" xml:space="preserve">
<style type="text/css">
	.st0{fill:#020203;}
</style>
<g>
	<g>
		<polygon class="st0" points="249.7,641.1 212.3,559.8 174.9,559.8 127.2,512.1 84.1,475.8 59.2,373.9 64.8,219.5 100.7,170.9 
			198.8,161.8 199.5,162.1 359.9,244 470,354.2 534.1,458.6 595.6,577.3 591,579.7 529.5,461.1 466,357.4 356.8,248.2 197.8,167.1 
			103.5,175.8 70,221.3 64.4,373.4 88.7,473 130.8,508.4 177,554.6 215.6,554.6 254.4,638.9 		"/>
	</g>
	<g>
		<polygon class="st0" points="314.5,779.6 289,699.8 236.8,664.3 204.8,623.1 195.8,557.6 200.9,556.8 209.7,621.1 240.4,660.5 
			293.4,696.6 319.4,778 		"/>
	</g>
	<g>
		<polygon class="st0" points="459.6,634.7 415.7,624.9 428.4,605.3 378,583.2 407.3,576.7 368.8,562.9 385,556.7 338,527.8 
			360.6,527.8 343.5,459.3 369.1,467.5 353.8,452.3 365.1,436.6 288.2,356.3 320,351 203.7,283 206.3,278.6 335.1,353.8 
			298.7,359.8 371.8,436.1 360.6,451.7 387.9,479 350.8,467.1 367.2,532.9 356.3,532.9 396.6,557.7 383.7,562.7 425.8,577.9 
			394.6,584.9 436,603 424.1,621.5 460.7,629.6 		"/>
	</g>
	<g>
		<polygon class="st0" points="409.4,692.6 366.8,692.6 397,669.1 347.2,655.5 382.3,640.2 342.5,626 366.4,605.1 289.9,577.2 
			338.5,580.6 265.7,544.2 305.8,544.2 224.5,504.3 279.5,504.3 197.1,418.4 228,425.7 164.3,392.3 191.7,392.3 125.7,330.8 
			171,330.8 146.9,268.8 199.1,286.2 197.5,291.1 155.7,277.2 178.6,336 138.9,336 204.9,397.5 185.4,397.5 267.1,440.3 213,427.5 
			291.7,509.4 246.8,509.4 328.1,549.3 287.6,549.3 364,587.5 326.1,584.9 376.4,603.3 352.5,624.1 396.3,639.8 362.8,654.4 
			408.4,666.8 381.9,687.4 409.4,687.4 		"/>
	</g>
	<g>
		<polygon class="st0" points="465.8,613.3 457.6,472 419.9,383.2 330.6,268.6 334.6,265.4 424.4,380.6 462.7,470.8 462.8,471.3 
			471,613 		"/>
	</g>
	<g>
		<polygon class="st0" points="81.5,364.2 76.4,363.8 83.9,266.4 110,197.3 198.8,197.3 299.3,237.7 367.9,264.6 366,269.4 
			297.3,242.6 197.8,202.4 113.6,202.4 89,267.6 		"/>
	</g>
	<g>
		<polygon class="st0" points="968.3,615.2 965.1,611.1 1020.5,569.2 1020.6,569.1 1088.6,530.7 1147.6,418.5 1147.6,238 
			1116,196.4 1026.7,189.1 896.3,233.5 776.1,327 697.5,435.3 652.9,572.2 647.9,570.6 692.8,432.9 772.4,323.4 772.6,323.1 
			893.8,228.9 1026.1,183.8 1118.8,191.4 1152.8,236.3 1152.8,419.8 1092.5,534.5 1023.3,573.5 		"/>
	</g>
	<g>
		<polygon class="st0" points="936.8,756.4 932.1,754.2 967.2,677.5 1029.8,630.6 1058.9,548.2 1063.8,549.9 1034.2,633.8 
			971.4,680.8 		"/>
	</g>
	<g>
		<polygon class="st0" points="778,621.1 775.7,616.4 832.7,588.9 789.7,588.9 856.9,557.7 827.5,548.8 873.8,537.3 841.2,519.9 
			874.8,506.5 826,480.1 861.9,474.3 831.7,460.8 883.9,440.1 839.9,423.2 903.9,390.7 858.3,383.9 931.3,351.7 894.6,351.7 
			1032.3,307.4 1033.9,312.4 927.7,346.5 955.9,346.5 876.7,381.4 920.6,388 852.6,422.6 898.1,440 845,461.1 879.8,476.7 
			841.9,482.8 887,507.2 853.5,520.6 888.1,539.1 847,549.3 871.4,556.7 813.2,583.7 855.3,583.7 		"/>
	</g>
	<g>
		<polygon class="st0" points="841.6,621.3 841.2,616.2 904.2,611.3 878.6,599.9 932.7,572.5 869,572.5 958.1,542.2 924.3,518.1 
			990.9,518.1 969.5,508 1042.8,489.6 996,454.9 1058.9,444.9 989.9,415.1 1046.8,415.1 1003.1,372.8 1060.9,361.4 1061.9,366.5 
			1013.8,376 1059.7,420.3 1015,420.3 1077.4,447.2 1009,458.1 1054.7,492 984.8,509.5 1014.1,523.2 940.5,523.2 969.3,543.9 
			900.3,567.3 954.4,567.3 890.7,599.6 924.8,615 		"/>
	</g>
	<g>
		<polygon class="st0" points="752.9,600 747.8,599.4 765.7,439.3 766,438.9 796,381.7 796.4,381.4 860.6,326.2 864,330.1 
			800.2,385 770.8,440.8 		"/>
	</g>
	<g>
		<polygon class="st0" points="1134.9,440.1 1129.7,440.1 1129.7,264.6 1099.7,220.5 1033.3,226.3 955.6,233.7 832.3,312.1 
			829.5,307.7 953.9,228.7 1032.9,221.2 1102.3,215 1134.9,263 		"/>
	</g>
	<g>
		<polygon class="st0" points="579,496.6 511.6,431.7 515.2,427.9 575.6,486.2 579,467.7 603.1,486.5 607.2,449.9 619.5,481.4 
			642.3,442.8 645.5,478.2 672,448.4 668.8,472 689,445.2 693.1,448.4 660.9,491 664.6,464.6 641.4,490.5 638.6,459.3 618.6,493.2 
			610,471.3 607.2,496.2 582.5,477.1 		"/>
	</g>
	<g>
		<polygon class="st0" points="665.7,824.1 660.9,822.1 671.8,795.2 695.2,776.9 731.7,765.7 754.1,776.9 751.8,781.6 731.3,771.3 
			697.6,781.6 676.1,798.4 		"/>
	</g>
	<g>
		<polygon class="st0" points="559.3,818.1 555.5,801.6 539.9,773 503.8,763.6 480.5,766.1 460.4,787.5 456.6,783.9 478.1,761.1 
			504.2,758.4 543.4,768.5 560.4,799.7 564.4,817 		"/>
	</g>
	<g>
		<polygon class="st0" points="692.4,824.6 676.8,803.2 676.8,792.6 682,792.6 682,801.5 696.6,821.6 		"/>
	</g>
	<g>
		<path class="st0" d="M712.3,798.8l-7.3-13.7l11.5-13.7l12.8,3.6v19.6L712.3,798.8z M711.2,785.7l3.8,7.1l9.1-2.3v-11.6l-5.8-1.6
			L711.2,785.7z"/>
	</g>
	<g>
		<polygon class="st0" points="538.5,814.9 507.4,814.3 483.7,798.8 471.5,770.3 476.3,768.3 487.9,795.3 509,809.1 537.1,809.7 
			556.6,798.4 559.2,802.9 		"/>
	</g>
	<g>
		<polygon class="st0" points="483.2,797.2 481.6,771.8 491.3,760.4 495.2,763.8 486.9,773.6 488.4,796.9 		"/>
	</g>
	<g>
		<polygon class="st0" points="539.6,814.1 535.9,810.5 546,800.3 548.1,786.8 553.2,787.6 550.8,802.7 		"/>
	</g>
	<g>
		<path class="st0" d="M525.7,789.9l-11.6-5.3l7.1-14.6h6.9l12.3,5v10.3L525.7,789.9z M521.1,782.2l4.9,2.2l9.2-2.9v-3l-8.1-3.3
			h-2.6L521.1,782.2z"/>
	</g>
	<g>
		<polygon class="st0" points="643.9,980.7 632,980.7 632,975.5 642.9,975.5 654.4,971.1 659.6,959 653.3,926 636.9,917.8 
			598.5,912 568.7,923.3 557.5,945.7 557.5,960.4 568,970.6 585.2,972 584.7,977.2 565.7,975.6 552.3,962.6 552.3,944.5 565,919.2 
			597.9,906.7 638.5,912.8 657.9,922.5 665,959.6 658.3,975.1 		"/>
	</g>
	<g>
		<polygon class="st0" points="612.4,1000.2 591.5,991.3 575.4,976.6 590.4,968.9 590.4,955.4 585,951.7 567.5,956.6 566.1,951.6 
			586,946 595.5,952.7 595.5,972.1 584.4,977.8 594.4,986.9 612.3,994.5 635.1,984 623.7,974.7 617.7,961.4 625.9,945.9 
			647.8,950.3 652.1,961.3 647.2,963.2 644,954.8 628.7,951.8 623.4,961.6 627.9,971.5 644.8,985.3 		"/>
	</g>
	<g>
		<polygon class="st0" points="472.7,999.6 384.3,950.7 359.3,893.2 330,909.6 330,861.9 313.3,861.9 329.2,814.3 304.5,809.8 
			320.1,768.4 325,770.2 311.5,805.9 336,810.3 320.5,856.7 335.2,856.7 335.2,900.8 361.8,885.9 388.3,947 475.2,995.1 		"/>
	</g>
	<g>
		<polygon class="st0" points="734.4,1022.8 732,1018.2 854,954.9 877,852.7 912.1,877.6 901.4,811.7 925.6,829.3 907.8,766.5 
			943.2,790.6 923.2,729.2 928.1,727.6 952.9,803.5 916.7,778.8 934.7,842.3 908.5,823.3 919.1,889 880.4,861.5 858.6,958.4 		"/>
	</g>
	<g>
		<polygon class="st0" points="561.4,1023.2 531.2,1007 507.6,979.1 507.6,942.9 522.2,921.3 526.5,924.2 512.7,944.5 512.7,977.2 
			534.6,1002.9 562.3,1017.8 606.2,1010.4 609.9,996.7 614.9,998 610.3,1014.9 		"/>
	</g>
	<g>
		<polygon class="st0" points="668.7,1023.1 629.8,1023.1 607.4,1015.1 609.1,1010.2 630.7,1017.9 667.4,1017.9 692.4,1004.1 
			705.3,973.4 692,935.2 696.9,933.5 710.9,973.6 696.5,1007.8 		"/>
	</g>
	<g>
		<polygon class="st0" points="603,1045.5 578.3,1041.5 560,1022.3 563.7,1018.7 580.8,1036.7 602.3,1040.2 623.2,1031.6 
			648.4,1018.2 650.9,1022.8 625.3,1036.3 		"/>
	</g>
	<g>
		<polygon class="st0" points="507.9,960.5 487.1,921.8 450.6,918.6 409.9,925.3 409,920.2 450.4,913.4 450.7,913.4 490.4,916.9 
			512.4,958.1 		"/>
	</g>
	<g>
		<polygon class="st0" points="709.9,975.3 706.3,971.6 731.8,946.6 777,931.5 807.5,946.5 805.2,951.2 776.7,937.1 734.6,951.1 		
			"/>
	</g>
	<g>
		<polygon class="st0" points="564.9,1382.5 426.3,1232 417.6,1148.4 386.8,1148.4 405.3,1110.3 365.8,1110.3 387.6,1023.1 
			366.6,1023.1 366.6,909.3 371.7,909.3 371.7,1017.9 394.3,1017.9 372.5,1105.2 413.6,1105.2 395.1,1143.2 422.2,1143.2 
			431.3,1229.7 568.8,1379 		"/>
	</g>
	<g>
		<polygon class="st0" points="745.4,1328.4 741,1325.7 820.8,1197.1 820.8,1217.2 864.9,1125.5 864.9,1149.5 920.4,1027.2 
			945.8,1052.6 952.4,939.1 993.8,965.8 967.9,864.4 972.9,863.2 1002.1,977.4 957.1,948.3 950.3,1064.4 922,1036.1 859.7,1173.4 
			859.7,1148.2 815.7,1240 815.7,1215.3 		"/>
	</g>
	<g>
		<polygon class="st0" points="1104.5,949.7 1065.4,841.3 1102.4,759.1 1046.6,773 1063.5,732.8 988.8,758.6 966.8,679.9 
			971.8,678.5 992.3,751.9 1072.8,724.1 1055.4,765.5 1111.5,751.5 1071,841.5 1109.4,948 		"/>
	</g>
	<g>
		<polygon class="st0" points="718.6,2642 678.1,2621.9 677.8,2621.4 605.8,2519.5 589.6,2429 586.6,2273.6 586.7,2273.3 
			603.3,2171.4 603.5,2171 703.4,2006.8 819.2,1819.8 804,1764.9 661.3,1633.9 611,1557.2 590.7,1557.2 590.7,1499.4 564.3,1514.3 
			564.3,1470.7 535.2,1470.7 535.2,1349.2 540.4,1349.2 540.4,1465.5 569.4,1465.5 569.4,1505.4 595.9,1490.5 595.9,1552 
			613.8,1552 665.2,1630.5 808.6,1762.1 824.8,1820.6 707.8,2009.5 608.2,2173.2 591.8,2273.9 594.8,2428.7 610.7,2517.4 
			681.6,2617.9 719.5,2636.6 749.6,2633 750.3,2638.1 		"/>
	</g>
	<g>
		<path class="st0" d="M759.9,2639.4l-36.1-4.7l13.9-13.2l10.2-30.6l23.8,28.2l27.9-6.7l-15.9,22.9L759.9,2639.4z M735.2,2631
			l24.6,3.2l20.9-3.7l6.9-9.9l-17.8,4.3l-19.9-23.6l-7.7,23.1L735.2,2631z"/>
	</g>
	<g>
		<polygon class="st0" points="768.4,2617.7 763.9,2615.1 771.8,2601.4 759.3,2566.1 736.9,2543 712.6,2550.8 690.3,2534.3 
			693.3,2530.2 713.5,2545.1 738.4,2537.1 763.8,2563.3 777.4,2601.9 		"/>
	</g>
	<g>
		<polygon class="st0" points="782.6,2635.4 781.8,2630.3 793.2,2628.7 806.9,2612.8 784.1,2619.3 772.9,2610 776.3,2606 
			785.3,2613.6 822.1,2603.1 795.9,2633.5 		"/>
	</g>
	<g>
		<polygon class="st0" points="783,2614.9 778.9,2611.7 792,2595.2 791.1,2563.3 773.1,2534.7 741.1,2531 758.6,2497.6 
			739.1,2459.9 696.6,2459.9 730.8,2227.6 891.8,2095.7 891.8,2072 901.3,2072 888.5,2046.4 926.6,2065.5 924.3,2070.1 900.1,2058 
			909.7,2077.2 896.9,2077.2 896.9,2098.2 735.6,2230.4 702.6,2454.7 742.2,2454.7 764.5,2497.6 749.2,2526.8 776.1,2529.8 
			796.2,2561.7 797.2,2596.9 		"/>
	</g>
	<g>
		<path class="st0" d="M767.5,2835.9l36.6-41.9l0.2-0.2L848,2762l-6.9,56.9l-30.9,7.9L767.5,2835.9z M807.7,2797.9l-26,29.7
			l27.4-5.8l27.3-7l5-41.6L807.7,2797.9z"/>
	</g>
	<g>
		<path class="st0" d="M754.6,2822.4l37.3-43.3l21.5-18l-4.7,25.8l1.4-1.7l4.6-19l5.6-3.9l23.7-22.8l29.8,8.7l20.3-3.3l17.1-27.2
			l4.4,2.8l-18.4,29.2l-23.8,3.9l-28.1-8.2l-22,21.1l-4.2,2.9l-4.4,18.3l-21.7,27.1L754.6,2822.4z M795.5,2782.9l-27,31.4l21.9-4.5
			l15.8-19.7l-3.1-0.6l2.8-15.3L795.5,2782.9z"/>
	</g>
	<g>
		<polygon class="st0" points="784.4,2795.6 779.5,2793.8 789.5,2766.3 820.8,2729.2 843.5,2729.2 871.6,2742.6 904,2685.3 
			936.5,2361 920.9,2025.9 869.6,1903.3 804,1764.6 808.7,1762.4 874.4,1901.3 926,2024.8 926,2025.2 941.7,2361.1 941.7,2361.3 
			909.1,2686.9 873.8,2749.4 842.3,2734.4 823.2,2734.4 794,2768.9 		"/>
	</g>
	<g>
		<polygon class="st0" points="860.2,2838.2 825.1,2822.5 827.2,2817.7 860.8,2832.8 913.1,2821 913.3,2821 954.1,2817.6 
			1016.5,2730.8 1043.3,2595.3 1043.4,2595.1 1123.8,2386.6 1129.7,2252.6 1129.8,2252.5 1174.7,1914 1206.3,1898.2 1172.9,1886 
			1210.4,1870.4 1183.5,1852.4 1242.5,1828.8 1148.5,1780.4 1065.8,1660.1 1065.7,1659.7 1007.5,1424.5 923.1,1248.4 927.8,1246.1 
			1012.4,1422.7 1012.5,1423 1070.6,1658 1152,1776.4 1254.9,1829.4 1194.6,1853.6 1221.3,1871.4 1187.2,1885.7 1219.4,1897.4 
			1179.5,1917.4 1134.9,2253.1 1128.9,2387.7 1048.3,2596.8 1021.4,2732.9 1021,2733.3 956.9,2822.6 913.9,2826.1 		"/>
	</g>
	<g>
		<polygon class="st0" points="1214.8,1810.3 1209.6,1810.3 1209.6,1735.5 1235.6,1782.9 1246.6,1727.3 1270,1727.3 1270,1670 
			1300.1,1714.7 1300.1,1655.6 1339.4,1702.6 1339.4,1643 1382.4,1663.4 1397.8,1544.2 1478.3,1530.4 1479.2,1535.5 1402.5,1548.6 
			1386.6,1671.1 1344.5,1651.2 1344.5,1716.9 1305.3,1669.9 1305.3,1731.7 1275.2,1686.9 1275.2,1732.5 1250.8,1732.5 
			1237.9,1797.8 1214.8,1755.7 		"/>
	</g>
	<g>
		<polygon class="st0" points="2221.7,2820.9 2185.7,2820.9 2185.7,2815.8 2221.3,2815.8 2332,2797.3 2456.3,2653.1 2508.8,2310.9 
			2584.7,2329.2 2553.7,2226.4 2610.8,2226.4 2530.2,2092.1 2610.9,2092.1 2552.7,1991.7 2611.2,1991.7 2515.6,1804.7 
			2586.3,1838.7 2523.3,1694.7 2585.5,1730.2 2508.6,1573.7 2513.1,1571 2557.8,1635.6 2478,1358.7 2534.2,1462.1 2520.4,1290 
			2404.5,1146.7 2408.5,1143.4 2525.4,1288 2525.5,1288.8 2541.4,1486 2496.1,1402.8 2571.5,1664.6 2528.5,1602.5 2597.6,1743.1 
			2534.4,1707 2596.7,1849.4 2527.2,1816 2619.6,1996.9 2561.7,1996.9 2619.9,2097.3 2539.4,2097.3 2620,2231.6 2560.7,2231.6 
			2592.3,2336.3 2513.1,2317.2 2461.2,2655.4 2460.7,2655.9 2334.7,2802.1 		"/>
	</g>
	<g>
		<path class="st0" d="M2120.2,2835.6l42-54.9l43.4-31.9l-2.6,7.7c-1.3,4-8.7,27.3-10.2,32l11.4,32.5h-42L2120.2,2835.6z
			 M2165.9,2784.4l-31.1,40.6l26.6-9.2h35.6l-9.5-27.2l0.3-0.8c0.3-0.8,4.9-15.6,8-25.2L2165.9,2784.4z"/>
	</g>
	<g>
		<polygon class="st0" points="2158.6,2793.4 2153.5,2792.6 2161.6,2742.5 2199.9,2705 2256.2,2723 2276.6,2708.4 2300.9,2666.4 
			2305.4,2669 2280.5,2712 2257.1,2728.7 2201.3,2710.9 2166.5,2745 		"/>
	</g>
	<g>
		<path class="st0" d="M2053.2,2834.8l10.8-43.1l35.5-38.6h24.6v39l14.4,19.2l-41,3.7L2053.2,2834.8z M2068.7,2794.3l-7.9,31.5
			l35.3-15.9l32.6-2.9l-9.8-13.1v-35.6h-17.2L2068.7,2794.3z"/>
	</g>
	<g>
		
			<rect x="2122.8" y="2806.3" transform="matrix(0.5769 -0.8168 0.8168 0.5769 -1401.2543 2927.6294)" class="st0" width="5.2" height="20.3"/>
	</g>
	<g>
		<polygon class="st0" points="2089.2,2771.6 2084.3,2770 2098.5,2725.6 2138.1,2701.3 2140.8,2705.7 2102.8,2729 		"/>
	</g>
	<g>
		<polygon class="st0" points="2028.7,2836.2 2048.6,2801 2077.2,2777.4 2080.5,2781.4 2052.7,2804.4 2041.3,2824.4 2058.9,2816 
			2061.1,2820.7 		"/>
	</g>
	<g>
		<polygon class="st0" points="2780,2669.2 2722.4,2604.5 2731.4,2658.9 2678.8,2594.8 2680.9,2638 2568.4,2558.3 2563.6,2622.5 
			2514.2,2528.6 2518.5,2569.8 2479.9,2503.2 2484.4,2500.6 2510.8,2546.2 2506.2,2502.3 2559.8,2604.1 2563.9,2548.8 
			2675.2,2627.6 2672.8,2579.4 2723.1,2640.6 2714.3,2587.6 2768.6,2648.6 2759,2615.7 2838.9,2652.8 2810.3,2608 2925.6,2653.1 
			2821.8,2516.1 2881.7,2560.4 2826.6,2364.4 2869.4,2372.9 2805.3,2276.5 2849.7,2276.5 2797.9,2207.4 2847.6,2227.7 
			2749.7,2089.4 2749.6,2089.2 2682.8,1957.9 2710.1,1957.9 2668.3,1847.4 2696.7,1847.4 2613.3,1738.2 2617.1,1734.7 
			2640.5,1755.8 2611.5,1645.7 2661.9,1667.1 2611.1,1507.9 2653.2,1528.2 2610.9,1374.3 2652.3,1404.6 2626.6,1323.8 
			2684.6,1333.3 2609.2,1218.7 2683.7,1242.5 2559.9,1058.3 2428.2,997.4 2466.8,977.9 2351.1,906.7 2406.5,906.7 2099.7,730.9 
			1766.9,670.9 1779.3,655.3 1501.2,682.2 1512.5,656.5 1404.3,693.6 1404.3,671.5 1243.2,720.5 1256.7,696.9 1093.9,789.4 
			1091.3,784.9 1270.6,683.1 1254.2,711.7 1409.4,664.5 1409.4,686.4 1522,647.8 1509.5,676.2 1790.9,649 1776.4,667.3 
			2101.5,725.9 2101.9,726.2 2425.9,911.9 2369.4,911.9 2477.5,978.4 2440.1,997.2 2563.4,1054.2 2696.3,1252 2621.6,1228.1 
			2695.4,1340.3 2634.1,1330.3 2662,1418.2 2619.9,1387.3 2661.2,1537.8 2619.7,1517.8 2670.3,1676.2 2619.2,1654.6 2649.9,1771.2 
			2634.3,1757.1 2707.2,1852.6 2675.8,1852.6 2717.6,1963 2691.2,1963 2754.1,2086.7 2862.1,2239.2 2813.3,2219.3 2860,2281.7 
			2814.9,2281.7 2880.6,2380.5 2833.9,2371.1 2890.7,2573.5 2847.6,2541.7 2940.8,2664.7 2823.3,2618.6 2852.9,2665 2767.2,2625.2 
					"/>
	</g>
	<g>
		<polygon class="st0" points="2102.8,2728.8 2098.5,2725.8 2161.8,2636.5 2275.8,2393.7 2310.3,2280.4 2315.3,2281.9 
			2280.6,2395.6 2280.5,2395.7 2166.3,2639.1 2166.2,2639.3 		"/>
	</g>
	<g>
		<path class="st0" d="M1845.8,2778.7l45.3-61.8l0.5-0.3l44.9-26.5l-19.2,38.1l7.5,34.5l-27.9-8.8L1845.8,2778.7z M1894.6,2720.9
			l-32.3,44.1l34.1-16.5l21.3,6.7l-6-27.6l12.1-24L1894.6,2720.9z"/>
	</g>
	<g>
		<polygon class="st0" points="1901.3,2716.2 1896.4,2714.6 1904.4,2690.4 1931.6,2660.3 1961.1,2660.3 1985.2,2674.4 
			2017.3,2661.6 2077.3,2617.8 2080.4,2622 2019.8,2666.2 2019.5,2666.3 1984.8,2680.2 1959.7,2665.5 1933.9,2665.5 1909,2693.1 		
			"/>
	</g>
	<g>
		<polygon class="st0" points="2025.9,2795.6 1959.6,2795.6 1915.5,2783.3 1904.7,2755.5 1909.5,2753.6 1919.4,2779.1 
			1960.3,2790.5 2025.2,2790.5 2068.7,2778.7 2070.1,2783.7 		"/>
	</g>
	<g>
		<polygon class="st0" points="1823.2,2785.1 1844.7,2714.1 1870.7,2684.7 1876.3,2695.9 1888.6,2727 1883.8,2728.9 1871.5,2698 
			1869.5,2693.9 1849.3,2716.7 1832,2773.7 1863.6,2754.8 1866.3,2759.2 		"/>
	</g>
	<g>
		<polygon class="st0" points="1937.1,2789.3 1897.7,2784.5 1875.1,2763.6 1878.6,2759.8 1900,2779.5 1937.7,2784.2 		"/>
	</g>
	<g>
		<polygon class="st0" points="1872.5,2696.3 1867.8,2694.2 1876.3,2675.4 1899.2,2644.5 1935.2,2635.1 1972.1,2648.4 
			2025.5,2618.1 2124.9,2369.6 2114.6,2212 1975.9,2026 1961.9,2058.8 1911.8,1940.5 1883.2,1971.5 1883.2,1881.4 1847.4,1914.9 
			1847.4,1845.1 1820,1881.7 1830.8,1714.4 1789.7,1721 1810,1687.3 1751.2,1705 1765.4,1674.2 1685.5,1674.2 1685.5,1697.5 
			1559.7,1697.5 1567.4,1718.8 1482.9,1708.4 1494.7,1735.5 1423.4,1723.1 1411.5,1754.4 1306.6,1742.7 1315.4,1766.9 1244.1,1753 
			1245.1,1747.9 1307.4,1760.1 1298.8,1736.6 1408.1,1748.8 1420.1,1717.3 1486.1,1728.8 1474.6,1702.2 1559.7,1712.7 
			1552.4,1692.3 1680.3,1692.3 1680.3,1669.1 1773.5,1669.1 1760.7,1696.7 1821.3,1678.5 1799.9,1714.1 1836.4,1708.2 
			1826.3,1864.6 1852.6,1829.6 1852.6,1903 1888.4,1869.4 1888.4,1958.3 1913.5,1931.1 1961.9,2045.6 1974.7,2015.7 2119.6,2210.2 
			2119.7,2210.9 2130.1,2370.4 2129.9,2371 2029.6,2621.7 1972.6,2654.1 1934.9,2640.5 1902.3,2649 1880.8,2678 		"/>
	</g>
	<g>
		<polygon class="st0" points="422.2,916.9 403.5,885.9 375.5,885.9 387.7,841.2 364.5,836.4 400.7,790.3 357.9,794.5 477.2,723.6 
			458.4,700.4 527.1,736.7 538.4,723.8 557.2,760.9 580.5,801.3 565.8,795 567.9,790.2 568.2,790.3 552.6,763.3 537.2,733 
			528.3,743.2 478.3,716.8 485,725 380.5,787.1 412.2,784 373.8,833 394.2,837.2 382.2,880.7 406.4,880.7 419.1,901.8 421.6,884.3 
			406.1,870.3 423.3,841.1 403.4,849.9 439.7,785.1 464.1,776.3 465.9,781.2 443.3,789.3 415.5,838.9 435.9,829.8 412.7,869.3 
			427.1,882.3 		"/>
	</g>
	<g>
		<polygon class="st0" points="831.4,959.6 801.7,934.2 795.8,944.1 784.6,905.5 807.6,912.2 791.1,859.6 803.6,864.1 768,820.5 
			781,820.5 747.8,802.8 780.4,801.1 755.5,775.4 745.8,776.6 745.8,791.5 732.3,819.6 694.1,825.8 667,813.7 669.1,809 
			694.8,820.4 728.8,814.9 740.6,790.4 740.6,772.1 757.5,769.9 792,805.7 766.7,807 801.7,825.7 778.9,825.7 819.5,875.4 
			799.2,868 815.5,919.9 792.2,913.1 797.5,931.2 800.5,926.2 826,948.1 824.5,891.1 850.5,897.4 812.9,805.3 841.9,805.3 
			773.2,762.9 782.1,749.9 711.7,748.4 716.1,743.4 668.5,766.4 677.5,766.9 662.9,798.6 667.3,797.3 668.8,802.2 653.5,806.7 
			669.6,771.7 647.9,770.6 737.1,727.5 723,743.5 791.8,744.9 780.5,761.3 860.2,810.4 820.6,810.4 859.1,904.8 829.9,897.7 		"/>
	</g>
	<g>
		<polygon class="st0" points="351.4,764.1 348.1,760.1 394.9,721.1 362.3,713.4 422.1,678.4 413.8,667.1 461.1,642.6 430.2,642.6 
			490.7,617 490.7,596.5 580.6,616.8 576.2,631.5 533.3,630.1 549.3,649.6 493.5,654.8 493,649.6 539.1,645.3 522.1,624.6 
			572.4,626.2 574,620.7 495.9,603 495.9,620.5 455.8,637.4 482.4,637.4 421.5,668.9 429.6,680 376,711.3 406.1,718.5 		"/>
	</g>
	<g>
		<polygon class="st0" points="892.1,724.2 815.5,671.2 852.6,659.1 775.4,641.2 798.6,625.1 711.1,621 729.4,603.9 638.3,621 
			635.7,630.2 677.8,638.8 657,651.3 691.7,660.6 690.3,665.6 643.8,653.1 663.7,641.2 629.3,634.2 634.2,616.5 745.9,595.5 
			723.6,616.4 814.1,620.6 788,638.8 871.9,658.2 827,672.9 895.1,719.9 		"/>
	</g>
	<g>
		<polygon class="st0" points="2113.4,2756.9 2108.8,2754.5 2137.4,2701.7 2176.4,2673.6 2216.8,2691.6 2250,2671.3 2272.8,2644.1 
			2317.4,2410.1 2306.2,2210 2137.6,2046.1 2125.4,2082.4 2094.8,1999.5 2085.3,2054.7 2068.3,1978.9 2041.6,2027.9 2008.2,1896.7 
			1988.4,1941.3 1988.4,1827.1 1961.2,1912.9 1917.8,1677.3 1866.2,1733.8 1896,1642.1 1835.7,1696.7 1871.3,1606.1 1830,1652.7 
			1861,1540.1 1810.2,1581.1 1818.2,1398.9 1802.6,1387.7 1802.6,1211.3 1855,1187.8 1802.6,1163.1 1802.6,1103.9 1773.2,1147.3 
			1661.8,1173.8 1723.1,1213.2 1633.5,1260.2 1700.6,1304.9 1589.5,1364.8 1670.2,1364.8 1604.2,1411.2 1604.2,1467.8 
			1539.6,1486.2 1538.2,1481.2 1599,1463.9 1599,1408.5 1653.8,1370 1568.9,1370 1690.5,1304.5 1623.4,1259.7 1712.8,1212.7 
			1648.8,1171.5 1770.1,1142.8 1807.8,1087 1807.8,1159.8 1867.4,1187.9 1807.8,1214.6 1807.8,1385.1 1823.5,1396.3 1815.9,1569.9 
			1870.3,1525.9 1840.9,1632.6 1886.8,1580.8 1848.6,1678.1 1906.9,1625.2 1878.5,1712.6 1921,1666 1962.5,1891.6 1993.6,1793.6 
			1993.6,1916.9 2009.6,1880.9 2043.3,2013.8 2070.3,1964.4 2084.6,2028.1 2093,1979.6 2125.2,2066.8 2135.3,2036.7 2311.3,2207.7 
			2311.4,2208.7 2322.6,2410.5 2322.5,2410.8 2277.6,2646.4 2253.4,2675.2 2217.2,2697.4 2177,2679.6 2141.4,2705.2 		"/>
	</g>
	<g>
		<polygon class="st0" points="2152.4,2026.6 2147.3,2025.5 2161.6,1960 2122,1960 2159.3,1915.3 2124.5,1915.3 2143.9,1766.1 
			2107.2,1766.1 2122.7,1729.5 2080.6,1746.9 2097.1,1675.4 2011.1,1701.1 1959.4,1510.5 1964.4,1509.2 2014.7,1694.6 
			2104.2,1667.9 2087.9,1738.3 2132.3,1719.9 2115,1760.9 2149.8,1760.9 2130.4,1910.1 2170.3,1910.1 2133,1954.9 2168,1954.9 		"/>
	</g>
	<g>
		<polygon class="st0" points="1019.8,2716.5 968.9,2607.9 986.5,2573.8 983.4,2465.1 1034.2,2465.1 994.6,2277.9 1088.7,2294.3 
			1033.7,2139.9 1110,2139.9 1050.3,2092.1 1112,2092.1 1035.1,1995.5 994.5,1847.4 1051.5,1847.4 1034.1,1764.8 1104.3,1776.6 
			1014.9,1722.9 999.9,1814.4 941.7,1782.3 941.7,1814.8 824.9,1747.8 827.4,1743.3 936.5,1805.9 936.5,1773.6 996,1806.3 
			1011,1714.5 1130.5,1786.2 1040.7,1771.2 1057.9,1852.6 1001.3,1852.6 1039.8,1993.1 1122.8,2097.3 1065.1,2097.3 1124.8,2145.1 
			1041.1,2145.1 1096.5,2301 1001.2,2284.3 1040.6,2470.3 988.8,2470.3 991.7,2574.9 974.7,2608 1024.5,2714.3 		"/>
	</g>
</g>
</svg>
