<?xml version="1.0" encoding="utf-8"?>
<!-- Generator: Adobe Illustrator 24.1.1, SVG Export Plug-In . SVG Version: 6.00 Build 0)  -->
<svg version="1.1" id="Capa_1" xmlns="http://www.w3.org/2000/svg" xmlns:xlink="http://www.w3.org/1999/xlink" x="0px" y="0px"
	 viewBox="0 0 3000 3000" style="enable-background:new 0 0 3000 3000;" xml:space="preserve">
<style type="text/css">
	.st0{fill:#020203;}
</style>
<g>
	<g>
		<polygon class="st0" points="2214.3,392.6 2211.3,388.6 2253.9,357.4 2278,282.2 2278,159.3 2231.6,63.8 2149.3,87.6 
			1993.3,233.5 1977.6,315 1977.5,315.2 1957.4,368.5 1952.7,366.7 1972.8,313.6 1988.7,230.9 1989.3,230.4 2146.7,83.1 
			2234.3,57.9 2283,158.2 2283,283 2282.8,283.4 2258.1,360.5 		"/>
	</g>
	<g>
		<polygon class="st0" points="2035.1,452.3 2031.9,448.5 2065.6,420.2 2127.6,390.9 2112.8,385.3 2129.2,372.1 2110.9,363.6 
			2151.1,350.5 2128.8,339.4 2143.8,330.1 2133.5,320.8 2141.5,313.6 2107.9,313.6 2151.1,290.2 2120,281.7 2148.5,265 2120.3,265 
			2171.2,247.1 2132.9,231.4 2167.9,224.4 2152.4,213.1 2194.5,198.4 2150.7,190.1 2195,181.7 2189.2,179.5 2191,174.8 
			2213.3,183.4 2177.6,190.1 2213.8,196.9 2163,214.6 2180,227.1 2150.1,233 2185.3,247.5 2149.7,260 2166.9,260 2132.8,280 
			2164.4,288.7 2127.6,308.6 2154.5,308.6 2140.9,320.8 2152.1,330.9 2139.1,338.9 2164.3,351.5 2124.6,364.4 2138.7,371 
			2122.7,383.7 2140.3,390.4 2068.3,424.4 		"/>
	</g>
	<g>
		<path class="st0" d="M2156.1,382.1l-3.2-3.9l11-9v-11.4l27.7-9.9l-15.7-12.6l3.4-1.8c0.3-0.2,24.3-12.5,36.3-19
			c-4.4,0.3-10.2,0.8-15.4,1.5l-8.6,1.1l16.8-13.8l-11.3,4.2l9.6-12.8l-25.1,9.8l36.8-31.4l-19.1-5.3l27.8-26.8H2211l18.4-40h-14.5
			v-5h22.3l-18.4,40h20.7l-30.5,29.3l19.8,5.5l-21.5,18.3l13.8-5.4l-9.8,13.1l23.3-8.7l-26.6,21.9c16.7-1.7,17.3,0,17.8,1.7
			c0.3,0.9,0.4,2.5-2,4c-5.3,3.1-29.7,15.7-38.8,20.4l16.7,13.4l-32.8,11.7v10.2L2156.1,382.1z"/>
	</g>
	<g>
		<polygon class="st0" points="1983.8,359.9 1979.6,357.2 2015.8,301.8 2008.2,245.3 2079.3,175.4 2082.8,178.9 2013.5,247.2 
			2021,303 		"/>
	</g>
	<g>
		<path class="st0" d="M2069.3,457.7c0,0,0.1-0.1,0.1-0.3l-4.9-1.2c0.4-1.4,0.9-3.6,24.1-19.3c5.5-3.7,11-7.3,15.2-10h-30.3
			l64.8-20.5h-4.3v-5h36.7l-64.8,20.5h15.1l-7.3,4.6C2093.3,439.5,2071.1,454.7,2069.3,457.7z"/>
	</g>
	<g>
		<polygon class="st0" points="2283,543.4 2278,543 2279.7,522.6 2279.7,495.5 2289.1,380.4 2282.7,353.8 2270.3,307.5 
			2275.1,306.2 2287.6,352.5 2294.2,380 2294.1,380.4 2284.7,495.8 2284.6,522.9 		"/>
	</g>
	<g>
		<polygon class="st0" points="2097,2793.7 2073.2,2720 2073.1,2719.7 2063.4,2618.2 2054.8,2535.9 2054.8,2535.7 2065.6,2374.8 
			2071,2221.4 2071,2221.2 2088.3,2095 2092.6,2016 2100,1966 2076.6,1911.6 2109.4,1932.7 2106.3,1897.6 2128.8,1902.9 
			2125.7,1878.9 2146.6,1878.9 2132,1838.4 2163.5,1849.3 2138.5,1817.3 2176.2,1817.3 2155.5,1791.7 2180.3,1800.8 2173.6,1766.1 
			2193.3,1778.2 2188.6,1747.8 2203.8,1763 2203.8,1721.9 2218.8,1744.4 2209.8,1697.4 2224.2,1712.5 2210.9,1686.8 2248.1,1700.3 
			2238.5,1660.4 2265.7,1680.2 2244.9,1636.6 2269.2,1650.5 2252.3,1590.2 2295.3,1604.6 2259.9,1550.4 2290.3,1564.4 
			2271.8,1516.5 2300.8,1531.5 2267.4,1448.5 2302.5,1466 2284.9,1413.2 2325.4,1439.2 2308.2,1403.7 2349.3,1403.7 2283.5,1337.8 
			2333,1350.2 2303.2,1310.2 2355,1304.9 2322.2,1274.3 2368.7,1279.5 2321.6,1246 2366.2,1246 2323.7,1219 2361.5,1229.4 
			2323.2,1193.1 2389.7,1178.1 2353.7,1148.8 2388,1148.8 2354.6,1105.6 2388.9,1105.6 2356.4,1081.3 2402,1066.8 2364.1,1017 
			2400.3,1007.1 2344.8,996.9 2393,988 2354.4,963 2386.2,963 2350.6,911.8 2383.9,920.2 2359.1,891.4 2393.3,886.2 2366.6,866.5 
			2395.7,837.4 2349.3,806.4 2384.1,806.4 2343.4,763.6 2395.3,744.2 2342.3,686.9 2365.2,678.6 2323,648.3 2348.1,639.6 
			2313.8,630 2342.5,619.3 2294,607.5 2318.9,598 2289.7,583.4 2317.7,577 2262,549.4 2288.3,549.4 2242,529.1 2251.6,525.2 
			2220.6,525.2 2240.1,510.1 2200.5,510.1 2204.8,499.3 2147.8,499.3 2156.5,491.8 2098.7,491.8 2119.2,475.6 2073.5,475.6 
			2073.5,470.6 2133.6,470.6 2113.1,486.8 2169.8,486.8 2161.1,494.3 2212.2,494.3 2207.8,505.1 2254.6,505.1 2235.2,520.2 
			2277.6,520.2 2254.9,529.3 2312.2,554.4 2283.4,554.4 2332.5,578.7 2304.4,585.2 2331.3,598.6 2310.8,606.5 2359.5,618.4 
			2329.9,629.3 2364.8,639.1 2333.7,649.9 2375.8,680.1 2351.1,689 2404,746.2 2352.2,765.7 2395.7,811.4 2365.8,811.4 
			2403.6,836.6 2374.3,865.9 2405.9,889.3 2368.8,895 2398,928.8 2362.3,919.9 2395.8,968 2371.4,968 2406.3,990.6 2372.4,996.9 
			2422.7,1006.1 2372.5,1019.9 2410.2,1069.4 2367.2,1083.1 2403.9,1110.6 2364.8,1110.6 2398.2,1153.8 2367.8,1153.8 
			2400.9,1180.7 2333.5,1195.9 2379.4,1239.5 2354.6,1232.7 2383.4,1251 2337.3,1251 2387.3,1286.6 2336.7,1281 2366.5,1308.7 
			2312.5,1314.3 2345.3,1358.5 2299.8,1347.1 2361.4,1408.7 2316.1,1408.7 2337.7,1453 2294.1,1425.1 2311,1475.9 2277,1458.9 
			2310.5,1542.2 2281.2,1527 2299.4,1574.1 2273.6,1562.2 2307.4,1613.9 2259.7,1598 2277.3,1660.9 2256.3,1648.8 2278.7,1695.9 
			2246.5,1672.5 2255.2,1708.2 2221.2,1695.8 2244.6,1741.3 2217.9,1713.2 2228.4,1767.8 2208.8,1738.4 2208.8,1775.1 
			2195.9,1762.2 2199.9,1788 2180.7,1776.3 2186.9,1808.6 2170.8,1802.6 2186.7,1822.3 2148.8,1822.3 2177.8,1859.5 2140.2,1846.6 
			2153.7,1883.9 2131.4,1883.9 2134.7,1909.5 2111.9,1904 2115.3,1942.4 2087.7,1924.6 2105.2,1965.3 2097.6,2016.6 2093.2,2095.6 
			2076,2221.8 2070.6,2375 2059.8,2535.8 2068.4,2617.7 2078.1,2718.9 2101.8,2792.1 		"/>
	</g>
	<g>
		<path class="st0" d="M2143.6,2926.2l-22.6-9V2901l-6.4-15.7l4.8-18.6l18.9,32L2143.6,2926.2z M2126,2913.7l11,4.4l-3.4-17.6
			l-12.3-20.8l-1.4,5.4l6.1,15V2913.7z"/>
	</g>
	<g>
		<path class="st0" d="M2213.7,2925.6l-24.8-6.8l-3-20.3l-18.5-29.1l32.3,18.2l8.7,14.3L2213.7,2925.6z M2193.4,2914.9l13.6,3.7
			l-3.3-14.7l-7.6-12.5l-13.8-7.8l8.4,13.2L2193.4,2914.9z"/>
	</g>
	<g>
		<path class="st0" d="M2039.7,2932.6l-39.7-8.4l-4.6-24.1l-14.1-29.7l31.2,17.8L2039.7,2932.6z M2004.3,2920l25.1,5.3l-20.4-33.4
			l-16.3-9.3l7.5,15.9L2004.3,2920z"/>
	</g>
	<g>
		<polygon class="st0" points="2157.4,2915.3 2138.5,2915.3 2138.5,2910.3 2151.6,2910.3 2146.7,2877.4 2115.4,2822.8 
			2093.8,2810.7 2058.1,2823.3 2056.4,2818.6 2094.2,2805.3 2119.1,2819.1 2151.5,2875.7 		"/>
	</g>
	<g>
		<polygon class="st0" points="2123.2,2917.9 2098.8,2915.2 2068.8,2904.5 2068.8,2873.8 2055.2,2849.4 2033.7,2824.2 2012.3,2830 
			2000.2,2845.9 1996.2,2842.9 2009.4,2825.6 2035.5,2818.5 2059.5,2846.8 2073.8,2872.5 2073.8,2901 2100,2910.3 2123.8,2912.9 		
			"/>
	</g>
	<g>
		<polygon class="st0" points="2210.1,2914.5 2206.5,2911 2215.4,2902 2208.1,2869.5 2180.9,2831.6 2139.9,2810.6 2106.3,2817.1 
			2105.4,2812.2 2140.7,2805.4 2184.2,2827.7 2212.7,2867.4 2220.9,2903.5 		"/>
	</g>
	<g>
		<polygon class="st0" points="2190.9,2919.3 2180.1,2917.9 2154.2,2915.3 2154.7,2910.3 2180.6,2912.9 2191.5,2914.4 		"/>
	</g>
	<g>
		<path class="st0" d="M1987.1,2925.8l-35.2-8.8l-17.3-31.9l39.2,10.4L1987.1,2925.8z M1955.3,2912.7l23.1,5.8l-8.3-18.7l-25.6-6.8
			L1955.3,2912.7z"/>
	</g>
	<g>
		<path class="st0" d="M1934.6,2932.8l-27.4-8.7l-6.9-26.1V2876l24.1,21.9L1934.6,2932.8z M1911.4,2920.2l15.8,5l-7.1-24.5
			l-14.7-13.4v10L1911.4,2920.2z"/>
	</g>
	<g>
		<polygon class="st0" points="1920.1,2900.5 1895.7,2855.1 1868.9,2847.1 1839.2,2862.6 1836.9,2858.2 1868.4,2841.7 
			1899.1,2850.9 1924.5,2898.2 		"/>
	</g>
	<g>
		<polygon class="st0" points="1883.5,2938.2 1847.9,2924.5 1849.7,2919.8 1883.2,2932.7 1908.2,2919.9 1910.5,2924.4 		"/>
	</g>
	<g>
		<path class="st0" d="M1851.3,2942.1l-19.8-22.8H1813l9.8-31.7l12.5-11.8l15.9,28.9V2942.1z M1819.8,2914.4h13.9l12.6,14.4V2906
			l-12.2-22.1l-6.9,6.5L1819.8,2914.4z"/>
	</g>
	<g>
		<polygon class="st0" points="1843,2899.5 1842,2882.1 1830.6,2844.6 1816.7,2840.9 1779.7,2857.8 1777.6,2853.3 1816.2,2835.6 
			1834.6,2840.5 1847,2881.3 1848,2899.2 		"/>
	</g>
	<g>
		<polygon class="st0" points="1816.4,2931.6 1777.4,2919.1 1752.9,2899.3 1734.1,2861.2 1713.6,2758.2 1681.1,2705 1681.1,2616.2 
			1642.3,2505.4 1568.2,2276.3 1519.1,2117.7 1519.1,2117.4 1498.9,1927.4 1503.9,1926.8 1524,2116.7 1572.9,2274.8 1647.1,2503.8 
			1686.1,2615.3 1686.1,2703.6 1718.4,2756.3 1738.9,2859.6 1756.9,2896.1 1779.8,2914.6 1816.4,2926.3 1836.4,2919.8 1838,2924.5 
					"/>
	</g>
	<g>
		<polygon class="st0" points="1977.9,2905.6 1972.9,2905.6 1972.9,2882.5 1943.5,2840.5 1917.7,2836.3 1899.2,2854.8 
			1895.7,2851.2 1916,2830.9 1946.4,2836 1977.9,2880.9 		"/>
	</g>
	<g>
		
			<rect x="1937.4" y="2900.1" transform="matrix(7.424215e-02 -0.9972 0.9972 7.424215e-02 -1109.8875 4632.001)" class="st0" width="5" height="27.5"/>
	</g>
	<g>
		<polygon class="st0" points="2014,2899.5 2013.1,2882.6 1989.5,2853.7 1970.7,2847 1952.2,2850.4 1951.3,2845.5 1971.1,2841.8 
			1992.5,2849.5 2018,2880.7 2019,2899.2 		"/>
	</g>
	<g>
		<polygon class="st0" points="2001.2,2919.4 1990.7,2919.3 1979.5,2917.9 1980.1,2912.9 1991.2,2914.4 2001.2,2914.4 		"/>
	</g>
	<g>
		<path class="st0" d="M2067.7,2926.4l-21.8-12.3l4.6-28.2v-35.4l17.2,51.8V2926.4z M2051.4,2911.5l11.3,6.4v-14.7l-7.2-21.8l0,5.1
			L2051.4,2911.5z"/>
	</g>
	<g>
		
			<rect x="2032.6" y="2896.4" transform="matrix(0.1857 -0.9826 0.9826 0.1857 -1202.4216 4369.4829)" class="st0" width="5" height="27.5"/>
	</g>
	<g>
		
			<rect x="2065.6" y="2904" transform="matrix(0.3984 -0.9172 0.9172 0.3984 -1420.771 3646.7295)" class="st0" width="8.1" height="5"/>
	</g>
	<g>
		<polygon class="st0" points="1942.5,2838.7 1923.7,2733.9 1906.8,2618.5 1897.9,2490 1868.1,2467.7 1877.1,2454.3 1868.5,2443.4 
			1877.1,2428.3 1854.8,2399.9 1866.7,2361.6 1840.3,2361.6 1861.7,2312.6 1834.7,2106 1839.7,2105.3 1866.9,2313.4 1848,2356.6 
			1873.5,2356.6 1860.3,2398.9 1883.2,2427.8 1874.5,2442.9 1883.2,2454 1874.9,2466.5 1902.7,2487.4 1911.8,2618 1928.7,2733.1 
			1947.4,2837.8 		"/>
	</g>
	<g>
		<polygon class="st0" points="1921.4,752.1 1916.7,750.6 1928.4,714.7 1967.6,678.4 2027.9,673.2 2095.9,687 2094.9,691.9 
			2027.6,678.3 1969.8,683.2 1932.7,717.4 		"/>
	</g>
	<g>
		<polygon class="st0" points="1957.5,741.6 1923,741.6 1923,736.6 1956.9,736.6 1993.7,728.1 2021,711.7 2045,678.2 2049,681.1 
			2024.4,715.4 1995.6,732.8 		"/>
	</g>
	<g>
		<polygon class="st0" points="1947.5,740.4 1937.2,724.3 1937.2,707.6 1942.2,707.6 1942.2,722.9 1951.7,737.7 		"/>
	</g>
	<g>
		<polygon class="st0" points="2031.9,697.7 2029.8,684.6 2021.5,678.1 2024.6,674.2 2034.4,681.9 2036.8,696.9 		"/>
	</g>
	<g>
		<path class="st0" d="M1966.4,710.1c-0.2,0-0.5,0-0.7-0.1c-1.2-0.3-3.1-0.8-9.6-19l-0.7-2l15.1-8.5l15.1,4.2v15.7l-1.4,0.7
			c-7.1,3.5-15,7.5-16,8.3C1967.7,709.9,1967,710.1,1966.4,710.1z M1965,705.6c0,0-0.1,0.1-0.1,0.1
			C1964.9,705.7,1965,705.6,1965,705.6z M1961.5,691.4c1.9,5.1,4.1,10.5,5.4,13c3.3-1.9,9.7-5.1,13.6-7v-8.8l-9.5-2.6L1961.5,691.4z
			"/>
	</g>
	<g>
		<polygon class="st0" points="1736.2,763.1 1731.2,763.1 1731.2,714.6 1707.3,692.2 1660.9,692.2 1638.1,695 1637.4,690.1 
			1660.8,687.2 1709.3,687.2 1736.2,712.5 		"/>
	</g>
	<g>
		<polygon class="st0" points="1733.5,756.9 1703.3,753.8 1661.3,733.3 1651.6,714.1 1651.6,690.5 1656.6,690.5 1656.6,712.9 
			1665,729.5 1704.7,748.9 1734,752 		"/>
	</g>
	<g>
		<polygon class="st0" points="1671.6,737.8 1663.9,724.1 1661.1,700.8 1666.7,688.6 1671.2,690.7 1666.2,701.6 1668.7,722.5 
			1676,735.4 		"/>
	</g>
	<g>
		<polygon class="st0" points="1719.3,754.4 1715.6,751.1 1722.5,743.5 1731.4,722.4 1736,724.3 1726.8,746.2 		"/>
	</g>
	<g>
		<path class="st0" d="M1690.6,710.5l-10.2-12.9l3.7-7.4l17.4-2.5l3.9,6.7l2.6,10.2L1690.6,710.5z M1686.3,697l6.1,7.7l9.6-3.2
			l-1.3-5l-1.9-3.2l-11.4,1.6L1686.3,697z"/>
	</g>
	<g>
		<polygon class="st0" points="1745,1033.9 1735,1025.7 1738.2,1021.8 1744.6,1027 1749.4,1021.9 1748.7,1012.3 1740.2,1006.7 
			1731.2,1014.8 1722.7,1015.9 1715.3,1000.5 1719.4,984.2 1735,963.2 1761.5,951.2 1800.7,948.7 1829.9,968.9 1839.6,990.2 
			1842.4,1018.1 1820.8,1027 1803.3,1016.8 1797.5,1002.9 1791.8,999.8 1786.3,1009.9 1799.1,1023.6 1807.7,1023.6 1807.7,1028.6 
			1797,1028.6 1780.1,1010.7 1789.9,993 1801.5,999.4 1807.3,1013.4 1821.2,1021.4 1837,1014.9 1834.7,991.5 1826,972.2 
			1799.3,953.8 1762.7,956.1 1738.3,967.2 1724,986.4 1720.6,1000 1725.6,1010.5 1729,1010 1739.8,1000.4 1753.5,1009.5 
			1754.6,1023.7 		"/>
	</g>
	<g>
		<polygon class="st0" points="1782.3,1053.7 1748.1,1046.2 1727.6,1031.7 1727.6,1012.4 1732.6,1012.4 1732.6,1029.2 
			1750.1,1041.6 1782.2,1048.5 1803.6,1042.6 1815.6,1032.4 1818.6,1023.4 1823.4,1025 1819.9,1035.3 1806,1047.1 		"/>
	</g>
	<g>
		<polygon class="st0" points="1862.5,1087.2 1813,1087.2 1790.4,1069.1 1780.1,1052.4 1784.4,1049.8 1794.2,1065.7 1814.8,1082.2 
			1861.8,1082.2 1919.8,1064.5 1963.1,1021.6 1968.2,991.1 1961.9,975.5 1966.6,973.6 1973.4,990.6 1967.8,1024 1922.4,1068.9 		"/>
	</g>
	<g>
		<polygon class="st0" points="1763.1,1090.2 1723.8,1065.7 1703.6,1033.1 1691.4,1013.1 1691.7,963.2 1714.9,913 1702.5,845.6 
			1707.4,844.7 1720.1,913.7 1696.6,964.3 1696.4,1011.7 1707.8,1030.4 1727.4,1062.1 1764,1084.9 1780.7,1081 1790.2,1066.1 
			1794.4,1068.8 1783.8,1085.5 		"/>
	</g>
	<g>
		<polygon class="st0" points="1801.9,1116.1 1774.1,1101.1 1761.8,1089.4 1765.2,1085.8 1777,1097.1 1802.9,1110.9 1863.6,1102.4 
			1898.5,1085.6 1908.6,1068.6 1912.9,1071.2 1902.1,1089.5 1865,1107.3 		"/>
	</g>
	<g>
		<path class="st0" d="M1545,490v-14.5h-34.2l15.1-16.2h-13.2l6.7-14.9c-14.9-2.3-35.3-5.2-38.1-5.2c-1.7,0-2.6-1-3-1.9
			c-0.5-1.4-1.3-3.6,13.4-16.3l-23.1-18.1l22-5.9l-46.7-26.9l21.3-8.5v-22.3l-29.2-69.9l-20.6-18.7l15.3-11.4l-27.9-6.2l17.7-8
			c-3.7-3-8.5-6.2-11.2-6.2c-1.5,0-2.9-0.7-3.8-1.9c-3.2-4.1-1.1-14.7-0.2-18.5l-2.8-37.5l-26.1-42.1l7.9-34.6h31.9l65.8,76.1
			l45.9,80.3l41.7,38.8l0.2,0.3l86.4,133.6l-4.2,2.7l-86.2-133.4l-41.8-38.9l-0.2-0.3l-46-80.4l-63.9-73.8h-25.7l-6.5,28.7
			l25.7,41.4l3,39.5l-0.1,0.4c-1.5,6.3-2,13.2-0.9,14.5c6.6,0.1,16.4,9,17.5,10l2.8,2.6l-11,4.9l23.9,5.3l-19.2,14.3l16.9,15.4
			l30,71.9v26.7l-14.8,5.9l48.3,27.8l-24,6.4l20.1,15.7l-2.3,2c-4.7,4-9.9,8.8-12.6,11.7c9.9,1.1,35.4,5,38.7,5.5l3.2,0.5l-6.2,13.9
			h17l-15.1,16.2h27.7v10.7l17.8-10.4l2.5,4.3L1545,490z"/>
	</g>
	<g>
		<polygon class="st0" points="1506.8,539.4 1501.8,539.4 1501.8,486.6 1465.1,444.8 1465.1,419.9 1452.4,390 1464.8,378.4 
			1468.2,382 1458.3,391.2 1470.1,418.9 1470.1,443 1506.8,484.7 		"/>
	</g>
	<g>
		<polygon class="st0" points="1662.5,309.1 1590.7,269.9 1528.5,227.6 1477.9,163.2 1481.8,160.1 1532,223.9 1593.5,265.7 
			1664.9,304.7 		"/>
	</g>
	<g>
		<polygon class="st0" points="1649.4,282.7 1585.1,237 1587.1,256.4 1553.4,244.4 1555.1,239.7 1581.3,249.1 1579,226.5 
			1626.1,260 1608.3,236.2 1641.8,256.1 1635.5,232.4 1669.9,258.7 1672.8,218.9 1693.5,246.3 1711.4,211.4 1733.1,245.2 
			1748.6,200 1769.7,240.5 1794.8,207.5 1794.8,247.5 1843.2,231.5 1862.9,246.7 1873.3,209.6 1889.8,229.8 1900.1,209.9 
			1918.3,239.3 1928.6,208.5 1945.5,241.4 1973.3,220.8 1973.3,245.2 1989.3,230.4 1992.7,234 1968.3,256.7 1968.3,230.7 
			1943.8,248.9 1929.6,221.4 1919.7,251 1900.5,220 1890.7,238.8 1875.5,220.2 1865.7,255.2 1842.2,237.1 1789.8,254.4 
			1789.8,222.3 1768.9,249.8 1749.6,212.6 1734.4,256.6 1711.9,221.4 1694.3,255.6 1676.9,232.5 1674.2,268.2 1644.1,245.2 
			1649.8,266.7 1627.4,253.4 		"/>
	</g>
	<g>
		<path class="st0" d="M1454.1,993l-37-21h31c-12.6-9.9-42.3-33-49-38c-2.5-1.9-2.2-3.7-1.9-4.6c0.6-1.4,1.6-3.9,20.4-2.3
			l-30.2-11.6l30.2-26.4H1387l26.6-33l-43.5,9.9l34.2-30.7L1370,844l52.2-47.7h-13.8l39.6-30.7h-25l48.7-52.9l-49,15.1l27.5-41.3
			l-31.5,4.1l32.7-22.3l-13.3-12.6l47.4-49.4h-23.6l25.9-28.1h-27.5l36.7-28.1h-32.5l85.4-28.5l-8.7-9.4l63.6-28.8l2.1,4.6
			l-57.3,25.9l9.2,10l-63.5,21.2h16.5l-36.7,28.1h24.2l-25.9,28.1h23.9l-52,54.3l14.1,13.4l-20.6,14.1l21.7-2.8l-25.8,38.8
			l53.3-16.4l-53.5,58.1h28.2l-39.6,30.7h12.1l-47.1,43l34.8-8.7l-34.9,31.2l38.6-8.8l-29,36.1h33.6l-34,29.7l61.9,23.7l-22-3.1
			c-12.3-1.8-26.4-3.1-32.7-2.8c12.2,9.3,52.2,40.5,52.6,40.9l5.7,4.5H1436l20.5,11.6L1454.1,993z"/>
	</g>
	<g>
		<polygon class="st0" points="1523,1805.7 1560.4,1766.9 1496.3,1766.9 1521.7,1734.5 1464,1741.4 1475.5,1707.6 1426.1,1733.4 
			1463.7,1614.4 1401,1637.7 1442,1563.2 1386.9,1571.9 1416.1,1529.3 1366.8,1529.3 1423.5,1453.9 1350,1478.2 1420.4,1415.6 
			1350.5,1435.9 1423.6,1372.3 1353.8,1372.3 1395.2,1337.8 1348.6,1337.8 1471.2,1284.6 1424.3,1260 1492.1,1233.4 1433.9,1217.2 
			1442.9,1205.2 1387,1178.6 1430.1,1152.1 1353.9,1130.4 1415.2,1099.1 1362.2,1062.8 1413.9,1050 1352.3,1009.9 1410.7,1009.9 
			1382.3,959.8 1412.5,959.8 1412.5,943.1 1417.5,943.1 1417.5,964.8 1390.9,964.8 1419.3,1014.9 1369.1,1014.9 1426.3,1052.1 
			1374.2,1065 1425,1099.8 1367.5,1129 1442.4,1150.5 1397.5,1178 1450.5,1203.3 1442.3,1214.3 1507.8,1232.6 1436.3,1260.7 
			1482.7,1285.1 1372.7,1332.8 1409,1332.8 1367.6,1367.3 1437,1367.3 1370.9,1424.7 1440.2,1404.7 1371.4,1465.9 1437.1,1444.1 
			1376.8,1524.3 1425.5,1524.3 1397.6,1565.2 1451.4,1556.6 1411.8,1628.3 1471.6,1606.2 1434.5,1723.3 1484.2,1697.3 
			1471.3,1735.5 1533,1728.1 1506.6,1761.9 1572.1,1761.9 1537.4,1797.9 1575.8,1790.7 1576.8,1795.6 		"/>
	</g>
	<g>
		<polygon class="st0" points="832.9,2281.3 827.9,2281.3 827.9,2160.5 799,1926.9 799.2,1926.4 859.7,1716.1 859.7,1716 
			963.5,1447.9 1040.4,1331.8 1053.2,1326.2 1013.1,1326.2 1059.8,1302.1 1040.7,1291.8 1079.4,1274.6 1055.5,1262.7 1094.2,1250.9 
			1227,1152 1207.7,1131.3 1249.4,1114.3 1211.7,1106.8 1278.9,1086.9 1257.9,1075.7 1329.3,1061.5 1396.4,1034 1398.3,1038.6 
			1330.8,1066.3 1330.6,1066.4 1272.6,1077.9 1292,1088.2 1232.5,1105.8 1266.7,1112.7 1216.3,1133.2 1234.4,1152.7 1096.5,1255.4 
			1069,1263.8 1091.1,1274.9 1052.1,1292.3 1070.5,1302.2 1033.6,1321.2 1077.1,1321.2 1043.7,1335.8 968,1450.2 864.4,1717.7 
			804.1,1927.3 832.9,2160.2 		"/>
	</g>
	<g>
		<polygon class="st0" points="1643.5,2701 1575.6,2679.7 1577.1,2674.9 1633,2692.5 1601.4,2636.1 1628.6,2651.7 1614.1,2632.8 
			1614.1,2528.6 1543,2235.5 1442.1,2083.1 1378.1,2050.4 1300.7,2025.3 1226,2012.5 1071.8,2076.7 966.4,2227.3 962.3,2224.5 
			1068.5,2072.7 1225.4,2007.3 1226.1,2007.4 1301.9,2020.4 1302,2020.5 1380,2045.7 1380.2,2045.8 1445.5,2079.2 1445.9,2079.8 
			1547.7,2233.5 1547.8,2233.9 1619.1,2528 1619.1,2631.1 1647.8,2668.4 1614.6,2649.4 		"/>
	</g>
	<g>
		<path class="st0" d="M798.7,2932.6l-103.2-57.1l26.1,39.6l-86.9-50l4.5,34.9l-43.7-35.8l-13.6,22.4l-28-48l-35.6,60.9l4.6-71.7
			l-45.7,45l6.6-59.1l-38.5,29.9l2.2-46.8l-69.2,29.4l19.8-43.3l-50.3,14.8l41.2-48.8l-52.3,14.6l25.5-41.9h-57.4l43.1-39.4
			l-72.1-37.6h31.9l-25.2-72h25l-26.2-62.7l41.3,17.7l-15.1-60l45.7,20.4l11.7-64.7l16.5,14.4v-48.4l56.2,33.5l-25.9-100.6
			l78.4,46.4l-8.7-53.1l25.8,17.9v-45.9l38.9,32.4v-54.8l28.1,21.6v-25.2l26.8,16l12.7-51.2l14.5,29v-25.4l22.8,43l49.7-37.8
			l25,45.9l23-44.9l6.9,47.3l38.5-36.3v49.2l62.7-31.9l-17.6,34.1l20.8-13.6v22.5l69.4-4.4l-18.6,45.5l56.2-25v35.6l77.2-9.1
			l-39,43.3l127.9-12.8l-28.9,51.7l57.1-7.1v26.8l66.7-9.2l-31.1,33.6h85.4l-29.1,24.4l144.1,21.5l-18.5,20.3l71.7-6.7l-45.2,33.1
			l114.5-2.4l-63.4,19l81.6,9.1l-61.2,12.2l109,41.2l-49.6,8.9l89.3,43.5l-45.3-3.7l65.1,54.5h-42.8l75.1,22.6l-66.1,5.6l93,36.6
			h-99.9l63.9,61.7l-65.8-21.7l25.8,36.1l-79.9-7.8h-18.3l13.5,2.4l-0.4,5h-77.7l33.4,13.3l-136.5-19.7l15.8,17.6l-125-17.2
			l37.3,26.9l-135.1-27.5l36.2,23.3l-131.9-6.1l21.4,19.3l-119.9-27.6l25.8,21.1l-98-21.9l25,29.3l-77-27.6l22.6,24.6l-98.9-25.7
			L798.7,2932.6z M941.5,2884.2l122,28.1l-17.5-15.7l127.3,5.9l-43-27.6l138.5,28.1l-34.7-25l131.3,18.1l-15.9-17.7l108.3,15.6
			l-18.4-7.3h75l-13.5-2.4l0.4-5l47.4,0l69,6.8l-28.2-39.5l59.5,19.6l-57.1-55.1h85.9l-88.4-34.7l61.3-5.2l-82.5-24.9h63l-66.6-55.7
			l34.6,2.8l-79.2-38.6l46.9-8.4l-108.3-40.9l46.7-9.4l-74-8.2l51.8-15.5l-93.6,1.9l43.4-31.7l-66.5,6.2l20.9-22.9l-145.9-21.7
			l27.1-22.7h-83.1l29.4-31.7l-58.5,8.1v-26.9l-61.3,7.6l29.1-52l-131.3,13.1l38.8-43.1l-69.6,8.2v-33.5l-60.5,26.9l20.3-49.6
			l-66.7,4.2v-18.6l-28.9,18.8l19.1-37.2l-56.1,28.6v-45.8l-37.1,35l-6-41.3l-20.2,39.4l-26.8-49.1l-49.7,37.8l-16.1-30.4v26.4
			l-17.9-35.8l-11.1,44.6l-25-15v26.6l-28.1-21.6v55.3l-38.9-32.4v44.8l-23.9-16.6l8.6,52l-77.2-45.7l25.9,100.6l-59-35.2v50.6
			l-18.1-15.8l-11.3,62.3l-42.1-18.8l15.1,59.8l-39.3-16.8l24.3,58.3h-25.5l25.2,72h-18.6l60.4,31.5l-38.9,35.5h53.4l-23.5,38.7
			l55.7-15.6l-40.9,48.4l44.8-13.2l-19,41.6l64.7-27.5l-2.1,43.9l39.3-30.5l-6.4,56.8l45-44.3l-4.1,63.7l29.2-50l28.1,48.2
			l12.3-20.2l38.4,31.5l-4.2-32.4l77.3,44.5l-25.7-39l91.2,50.4l-26.8-27.4l99.8,25.9l-24.9-27l78.5,28.1l-22.5-26.4l92.1,20.5
			L941.5,2884.2z"/>
	</g>
	<g>
		<polygon class="st0" points="1877.2,999.3 1875.8,994.4 1886.1,991.6 1907.1,984.4 1925.7,975.8 1942.6,957.3 1946.3,960.6 
			1928.7,980 1908.8,989.1 1887.5,996.4 		"/>
	</g>
	<g>
		<polygon class="st0" points="1891.3,1006.9 1890.6,1001.9 1920.2,997.9 1930.4,991.4 1949.9,972.7 1953.4,976.3 1933.5,995.3 
			1922,1002.7 		"/>
	</g>
	<g>
		<polygon class="st0" points="1936.2,1025.3 1900.3,1025.3 1900.3,1020.3 1934.3,1020.3 1962.6,995 1965.9,998.7 		"/>
	</g>
	<g>
		<path class="st0" d="M1697.4,951.6l-5.8-47.2L1681,848l-28.5-27.4c-14.2-9.2-30.3-19.4-32.4-20.1c-1.6-0.5-3.2-1.1-14.1-31.4
			c-5.2-14.5-10.1-29-10.1-29.2l4.7-1.6c8.6,25.5,18.9,54,21.6,57.7c4.9,2.3,28.3,17.4,33.2,20.6l0.4,0.3l29.9,28.6l11,58.2
			l5.8,47.3L1697.4,951.6z"/>
	</g>
	<g>
		<polygon class="st0" points="1966.7,974.7 1961.8,974.4 1964.1,936 1982.7,851.9 2012.5,825.3 2127,734.6 2130.1,738.5 
			2015.7,829.2 1987.3,854.5 1969,936.7 		"/>
	</g>
	<g>
		<polygon class="st0" points="1985,976.2 1981.2,972.9 2015.4,934.7 2045.6,899.6 2105.4,884.2 2168.1,873.4 2168.9,878.4 
			2106.4,889.1 2048.4,904 2019.2,938 		"/>
	</g>
	<g>
		<polygon class="st0" points="2276.9,1603.6 2229.9,1569.1 2246.6,1558.7 2194.9,1532.2 2164.6,1451.5 2211.6,1460.1 
			2182.1,1417.7 2213.3,1417.7 2192.7,1369 2252.5,1382.3 2230.9,1304.5 2265.3,1312.3 2228.6,1273 2297.3,1273 2226.3,1204.1 
			2269,1213.8 2252.6,1160.7 2286,1160.7 2227.2,1096.3 2283.8,1109.2 2225.9,1050.9 2301.2,1072.3 2258.4,1017.2 2306.1,1000.6 
			2242.8,982.3 2295.3,966.5 2222.7,941.8 2284.5,935.6 2239.6,926.6 2303.3,873.7 2337.1,860.8 2265.3,811.2 2317,796.5 
			2245.5,761.8 2284,755.9 2224.1,753.6 2257.6,728 2192.3,741.4 2159.5,770.7 2104.2,840.8 2119.7,773.1 2052.4,800 2050.6,795.3 
			2126.6,764.9 2114,820.3 2155.9,767.3 2156,767.1 2190,736.8 2278.1,718.7 2238.2,749.1 2310.1,752 2310.4,756.9 2262.1,764.3 
			2331,797.7 2276.9,813.1 2347.7,862.1 2305.9,878.1 2250.8,923.8 2318.2,937.2 2246.1,944.5 2311.7,966.8 2260.5,982.2 
			2322.5,1000.1 2266.6,1019.7 2314.5,1081.3 2242.9,1060.9 2299.5,1117.8 2241.6,1104.7 2297.3,1165.7 2259.4,1165.7 
			2276.3,1220.6 2242.5,1212.9 2309.7,1278 2240.1,1278 2280,1320.8 2237.9,1311.3 2259.5,1389 2201.1,1376 2220.9,1422.7 
			2191.7,1422.7 2222.6,1467.2 2172.4,1458 2198.9,1528.6 2256.7,1558.2 2238.8,1569.4 2279.8,1599.5 		"/>
	</g>
	<g>
		<path class="st0" d="M1823.2,2131.2l-4.9-0.8l6.5-42.4l12.4-30.7l10.2,24l8.8-29.2l16.6,12.5l6.5-59.6l18.6,15.4
			c1.6-8.7,5.2-27.5,6.9-31.9c0.6-1.5,1.7-2.3,3.1-2.4c1.1-0.1,3.9-0.2,10.7,11v-38.6l13.5,20.1l-7.5-47.6l17.7,36.7v-33.3l20,11
			l-9.9-34.3l16.9,11.3v-30.8l19.4,14v-28.6l19,16l-9.1-42.6l32.2,11.1v-43.3l54.3,51.1l-5.2-43l39.5,28.1l-12-37.2l30.2,23.3
			l-3.1,4l-17.4-13.4l11.7,36.2l-42.6-30.2l5.6,45.5l-55.9-52.6v38.8l-30.4-10.5l10.3,48.2l-22-18.5v27.6l-19.4-14v30.4l-13.3-8.9
			l9.5,32.7l-23.2-12.8v46.7l-12.5-26l5.7,36.6l-17-25.2v41.9l-4.7-9c-3.3-6.2-7.6-13.2-10-15.8c-1.9,6.7-5.5,25.9-6.9,33.5
			l-0.8,4.2l-18.1-14.9l-6.5,59.2l-17.9-13.4l-10.7,35.6l-10.9-25.6l-7.6,19L1823.2,2131.2z"/>
	</g>
	<g>
		<path class="st0" d="M1934.3,2839.5l-5.7-10l-8.7-35.9l-60.9-206.3l0-0.1l-66.3-317l0-0.2l-16.8-224.4h14.1l-26.5-63.3l21.3,6.1
			l-9.4-55.2l25.4,10.2l-6.6-55.6l-13.1-16.8v44.7l-21.8-41.9l-19.5,44.1l-17.5-16.5l-28,17.6l11.4-47.1l-38.6,13.4l21-46.8
			l-32.7,12.7l10.3-19.6l-29.1,13.2l27-60.8l-24.4,15.7l24.1-40.2l-26.2,10.7l16.9-53.5l-37.4,22.3l31-69l-40,17.8l24.7-42.2
			l-32.3,12.9l29.6-52.1l-49.5,18.7l7.1-7.8c1.8-1.9,38.4-41.6,50.9-55c-9.4,1.7-29.8,6.6-48.4,11.6l-8.7,2.3l83.3-86.5l18.1,27.8
			l21.5-43.1v41.3l41.5-49v32.5l31.4-41.5l5,28.1l8.5-54.4l23.4,19.6v-97.1l-55.4,23.5l18.2-39.6l-41.8,23.9l15.7-65.2H1701
			l23.9-29.2h-31.4l12.9-9.8l-73.1,19.4l44.4-51.4l-37,3.9l32.1-24.7h-35.7l30.2-28.1h-45.3l9.5-9l-43.5,11.9l33.7-28.2l-26.9-8.3
			H1554l28.7-13.1l-29.3-6l16.1-13.7H1534l43.4-21.7l-56.3-11.7l44.8-9.7l-38.5-10.6l37.7-17.7H1521l30-14.9l-80.9,14.3l76.3-31.3
			h-52l26.2-8.5l-42.4,6.8l67-35.8l-26,7.6l-58.3,9l25.3-23.4h-26.5l24.8-17h-38.7l16-8.8l-28.9-10.4l10.6-14.9H1422l29.6-29.6
			l-28-20.7l22.8-13.6h-12.4l29.3-18.9l-34.5-15l60.4-42.3l-5.6-9.4l50.4-26.2l66.2,93.7l46.6,40l-17.9-23.1l-17.9-45.8l54.5,42.8
			l26.5,36.8l-4.1,2.9l-26.1-36.2l-39.6-31.1l10.9,28.1l47.4,61.3l-84.2-72.3l-0.2-0.3l-63.9-90.4l-41.8,21.8l5.2,8.8l-56.9,39.8
			l34.9,15.2l-22.9,14.7h13.5l-31.9,19l26.7,19.7l-25.1,25.1h19l-12.4,17.5l33.1,11.9l-8.6,4.7h35.4l-24.8,17h23.1l-22.6,20.9
			l42-6.5l72.1-21.2l-83.5,44.7l44.7-7.2l1.2,4.8l-26.7,8.7h45.8l-56.8,23.3l69.5-12.3l-42,20.8h45.2l-45.8,21.5l45,12.4l-41.6,9
			l47.4,9.9l-37.3,18.6h27.9l-18.6,15.8l34.2,7l-21.7,9.9h18.4l36.4,11.2l-23.2,19.4l40.7-11.1l-15,14.1h45.4l-30.2,28.1h37.7
			l-29.7,22.9l32-3.3l-42,48.7l81.9-21.7l-21.2,16.1h27.1l-23.9,29.2h45.4l-14.5,60.1l45.3-25.8l-19.3,42l50.5-21.4v115.3
			l-24.8-20.8l-11.7,75.2l-8.3-46.2l-33.5,44.3v-33.8l-41.5,49v-33.7l-15.9,32l-19.4-29.8l-66.5,69.1c5-1.3,11.7-3,18.4-4.6
			c28.9-7,29.6-5.9,30.7-3.9c0.5,0.8,0.6,2.3-0.6,3.5c-3.3,3.3-33.4,36-47.5,51.2l42.7-16.1l-29.4,51.8l32.5-13l-24.2,41.3
			l37.8-16.8l-29.8,66.4l35-20.9l-17.7,55.9l30.2-12.3l-20.8,34.7l20.5-13.1l-28.5,64l30.4-13.7l-10.8,20.7l31.6-12.3l-21.2,47.3
			l36.3-12.6l-10.7,44.1l20.9-13.1l15.2,14.3l20.8-47.1l17.1,33v-38.8l22.9,29.3l0.1,0.7l7.7,64.7l-25-10l9.3,54.2l-19-5.4
			l25.4,60.6h-16.2l16.3,218.9l66.2,316.5l60.8,206.3l8.6,35.3l5.4,9.4L1934.3,2839.5z"/>
	</g>
	<g>
		<polygon class="st0" points="1909.3,1195.8 1909.3,1140.3 1872.8,1168.5 1879.7,1133 1831.9,1153.6 1838.8,1107.7 1843.7,1108.4 
			1838.2,1145.4 1886.4,1124.6 1880.2,1156.4 1914.3,1130.2 1914.3,1175.2 1943.7,1118.6 1979.4,1141.5 1967.4,1083.5 
			1999.5,1096.2 1970.9,1060 1949.9,1088.5 1932.8,1071.5 1921.2,1092.6 1908.6,1071.2 1912.9,1068.7 1921.1,1082.5 1931.6,1063.3 
			1949.3,1080.9 1970.7,1051.8 2015,1107.7 1974.2,1091.6 1986.8,1152.1 1945.6,1125.7 		"/>
	</g>
	<g>
		<path class="st0" d="M1821.8,1343.2l34.4-81.9l-7.9,79.2l-8.2-16.4L1821.8,1343.2z M1841.4,1315.5l3.7,7.3l2.9-28.8l-11,26.1
			L1841.4,1315.5z"/>
	</g>
	<g>
		<path class="st0" d="M1859.1,1334.3l28.6-75.1l6.1,41.5h-12.4L1859.1,1334.3z M1879.1,1295.7h8.9l-2.5-16.8L1879.1,1295.7z"/>
	</g>
	<g>
		<polygon class="st0" points="1321.5,2515 1318,2511.4 1372.6,2459.5 1355.5,2466 1388.2,2401.2 1355.9,2401.2 1386.6,2357.1 
			1335.8,2367.6 1373.9,2286.4 1315,2313.3 1354.8,2239.1 1308.5,2261.7 1341.2,2198.6 1251,2238.3 1295.8,2136.9 1257.5,2159.5 
			1295.9,2094 1243.4,2109.4 1274.1,2017.8 1278.8,2019.4 1251.2,2101.9 1306.6,2085.6 1271.6,2145.4 1306.7,2124.8 1260.8,2228.6 
			1352.1,2188.4 1319.9,2250.6 1366.5,2227.8 1326.4,2302.6 1384.2,2276.2 1344.5,2360.7 1397.9,2349.6 1365.5,2396.2 
			1396.3,2396.2 1365.8,2456.7 1394.1,2445.9 		"/>
	</g>
	<g>
		<polygon class="st0" points="1547.6,2884 1475.5,2851.8 1524.3,2837.4 1476.4,2806.9 1542.1,2791.3 1496.5,2728.8 1541.2,2728.8 
			1476.4,2645.2 1546.9,2662.2 1545.7,2667 1489,2653.4 1551.4,2733.8 1506.3,2733.8 1550.5,2794.5 1489,2809.1 1536.2,2839.1 
			1489.9,2852.8 1549.6,2879.4 		"/>
	</g>
	<g>
		<path class="st0" d="M1693.6,2926.3l-25-13.6H1649l17.8-16.2v-31l26.8,36.4V2926.3z M1662,2907.7h8l18.7,10.2v-14.3l-16.8-22.8v18
			L1662,2907.7z"/>
	</g>
	<g>
		<polygon class="st0" points="1682.2,2894.2 1679.8,2855.1 1660,2840.9 1630.8,2846.8 1629.8,2841.9 1661.1,2835.6 1684.6,2852.4 
			1687.2,2893.9 		"/>
	</g>
	<g>
		<polygon class="st0" points="1637.8,2919.4 1614.9,2908.8 1590.4,2899.7 1583.5,2886.5 1587.9,2884.2 1593.9,2895.6 1617,2904.2 
			1638.6,2914.3 1673,2910.3 1673.6,2915.3 		"/>
	</g>
	<g>
		<path class="st0" d="M1741.5,2920.6l-24-10.2l-19.3,9.2l6.7-20.5l-3.1-33.4l28.5,26.2l11.3,15V2920.6z M1717.4,2904.9l19.2,8.2
			v-4.6l-10.2-13.5l-18.5-16.9l2,21.5l-3.4,10.5L1717.4,2904.9z"/>
	</g>
	<g>
		<polygon class="st0" points="1730.3,2899.4 1729.3,2873.7 1718.8,2846.5 1696.8,2840.9 1676.4,2851 1674.2,2846.5 1696.3,2835.6 
			1722.5,2842.3 1734.3,2872.7 1735.2,2899.2 		"/>
	</g>
	<g>
		<polygon class="st0" points="1710.3,2924.8 1690.4,2918.5 1691.9,2913.7 1710.1,2919.5 1730.9,2911.5 1732.7,2916.1 		"/>
	</g>
	<g>
		<rect x="1720.7" y="2841.9" class="st0" width="11.2" height="5"/>
	</g>
	<g>
		<polygon class="st0" points="1750.9,2917.5 1737.8,2909.8 1740.3,2905.5 1751.7,2912.1 1769.8,2907.8 1771,2912.6 		"/>
	</g>
	<g>
		<polygon class="st0" points="1800.6,2307.7 1756.8,2217.9 1776.5,2228.3 1756.6,2167.7 1770.3,2169.8 1727.2,2065.3 1748,2067.5 
			1720.5,1988.1 1657.5,2069.7 1615.5,2119.9 1641.6,2144.6 1582.3,2224.2 1654.9,2208.9 1578.2,2295 1574.4,2291.7 1641,2217 
			1570.4,2231.9 1634.9,2145.2 1608.7,2120.2 1653.6,2066.6 1722.2,1977.7 1755.3,2073.3 1735,2071.1 1778.3,2176.1 1763.9,2173.9 
			1785.1,2238.6 1768,2229.5 1805.1,2305.5 		"/>
	</g>
	<g>
		<polygon class="st0" points="1904.4,2513.8 1899.6,2512.6 1940.8,2349 1909.5,2373.2 1948,2285.5 1894.8,2303.3 1955.6,2227.3 
			1925.4,2239 1979.9,2166.8 1940.1,2166.8 2014.1,2061.5 2047.7,1998.9 2086,2080.4 2073.2,2080.4 2085.7,2149.7 2080.8,2150.6 
			2067.2,2075.4 2078.2,2075.4 2047.4,2010.1 2018.4,2064.1 2018.3,2064.3 1949.8,2161.8 1989.9,2161.8 1940,2227.9 1971.1,2215.9 
			1909.3,2293.2 1957.1,2277.2 1922,2357.2 1949.1,2336.1 		"/>
	</g>
</g>
</svg>
