<?xml version="1.0" encoding="utf-8"?>
<!-- Generator: Adobe Illustrator 24.1.1, SVG Export Plug-In . SVG Version: 6.00 Build 0)  -->
<svg version="1.1" id="Capa_1" xmlns="http://www.w3.org/2000/svg" xmlns:xlink="http://www.w3.org/1999/xlink" x="0px" y="0px"
	 viewBox="0 0 3000 3000" style="enable-background:new 0 0 3000 3000;" xml:space="preserve">
<style type="text/css">
	.st0{fill:#020203;}
</style>
<g>
	<g>
		<path class="st0" d="M2468.3,1306.3l-11.5-4.3l-4.9-11.2l-9.7-3.8l-32.4,2l-18.1-11.4l-9.7-13.6l-21.2-11.6l44.5-6.5l49.5,15
			l18.8,23.5L2468.3,1306.3z M2460.6,1298l4.1,1.5l3.4-14l-16.3-20.3L2405,1251l-28.5,4.2l9,4.9l9.8,13.7l15.9,10l31.9-1.9l12.7,5
			L2460.6,1298z"/>
	</g>
	<g>
		<path class="st0" d="M2651.8,1297.3l-13.6-10.7v-15.8l9.7-11.9l38.9-17.4l32.7-8.9l52.2,10.9l-39.9,1l-0.4,12.8l-10.7,10.2
			l-19.4,10.7H2662l-7.7,4.8L2651.8,1297.3z M2643.3,1284.1l4.9,3.9l1.4-8.1l10.8-6.8h39.5l17.6-9.7l8.7-8.3l0.5-15.5l0.9,0
			l-8.1-1.7l-31.3,8.5l-37.2,16.7l-7.8,9.5V1284.1z"/>
	</g>
	<g>
		<polygon class="st0" points="2442.4,1286.7 2440.1,1282.3 2444.4,1279.9 2447,1273.1 2440.9,1261 2445.5,1258.8 2452.5,1272.8 
			2448.5,1283.5 		"/>
	</g>
	<g>
		<polygon class="st0" points="2387.3,1271.2 2383,1259.9 2387,1249.8 2391.7,1251.6 2388.5,1259.9 2392.1,1269.4 		"/>
	</g>
	<g>
		<polygon class="st0" points="2658.3,1278.9 2651,1274.8 2654.6,1265.4 2664.6,1251.9 2668.7,1254.9 2659.1,1267.9 2657.3,1272.6 
			2660.8,1274.5 		"/>
	</g>
	<g>
		<polygon class="st0" points="2726.8,1251.9 2722.4,1242.4 2712.3,1239.5 2713.7,1234.6 2726,1238.1 2731.4,1249.8 		"/>
	</g>
	<g>
		<path class="st0" d="M2695.9,1257.4l-3.4-6.3l3-7.9l10-2.2l7.4-0.5l7.1,4.3l-10.5,11.7L2695.9,1257.4z M2698.1,1250.7l0.8,1.4
			l8.2-0.6l5.1-5.6l-0.5-0.3l-5.6,0.4l-6.8,1.5L2698.1,1250.7z"/>
	</g>
	<g>
		<path class="st0" d="M2443.2,1275l-10.7-4.4l-4-11.4l11.5,2l4.8,4.9L2443.2,1275z M2436.5,1266.8l2.7,1.1l0-0.1l-1.8-1.9l-1.3-0.2
			L2436.5,1266.8z"/>
	</g>
	<g>
		<polygon class="st0" points="2532.2,1502.4 2517.5,1494.4 2515.2,1480.3 2520.8,1470.3 2539.5,1457.9 2598.5,1455.3 2608,1469 
			2614.6,1477 2614.6,1494.7 2604.5,1498.4 2587.8,1498.5 2587.8,1493.4 2603.6,1493.4 2609.5,1491.2 2609.5,1478.8 2603.9,1472 
			2595.9,1460.5 2541.1,1462.9 2524.7,1473.8 2520.5,1481.3 2522.1,1491.1 2533.2,1497.2 2544.7,1495.6 2545.4,1500.7 		"/>
	</g>
	<g>
		<polygon class="st0" points="2575.9,1510.3 2560.3,1510.3 2539.3,1503.4 2545.8,1491.4 2541.3,1484.9 2532.2,1488.3 
			2530.4,1483.5 2543.2,1478.7 2551.8,1491.1 2546.6,1500.5 2561.1,1505.3 2575.2,1505.3 2588,1502 2582.4,1490.8 2592.5,1475.5 
			2605.8,1483 2603.3,1487.4 2594.1,1482.2 2588.2,1491.2 2595.3,1505.3 		"/>
	</g>
	<g>
		<polygon class="st0" points="2572,1522.4 2530.9,1522.4 2469,1501.8 2454.6,1464.2 2408.1,1404.7 2327.5,1362.2 2329.9,1357.7 
			2411.4,1400.7 2459,1461.6 2459.2,1462 2472.9,1497.8 2531.7,1517.3 2571.5,1517.3 2629.8,1505.5 2664.7,1477.1 2692.9,1434.5 
			2703.4,1391.2 2787.3,1341.4 2789.9,1345.7 2707.9,1394.5 2697.7,1436.6 2697.4,1436.9 2668.5,1480.6 2668.2,1480.8 2632,1510.2 
					"/>
	</g>
	<g>
		<polygon class="st0" points="2296,1514 2310.9,1485.2 2192.7,1507.1 2216.1,1460.5 2185.5,1460.5 2207.8,1415.3 2130.5,1435.6 
			2169.3,1364.3 2136.2,1364.3 2161.4,1331.8 2120.7,1348.1 2157.2,1260.9 2130.4,1243.7 2181.3,1176.6 2176.1,1161.2 
			2171.7,1112.8 2163,1062.3 2163,979.3 2183.4,939.6 2252.6,910.6 2309.4,910.6 2398.4,939.2 2396.9,944 2308.6,915.7 
			2253.6,915.7 2187,943.6 2168,980.6 2168,1061.9 2176.8,1112.2 2181.1,1160.1 2186.9,1177.5 2137.8,1242.4 2163.5,1258.9 
			2130,1338.9 2176.9,1320.2 2146.6,1359.3 2177.8,1359.3 2140.6,1427.8 2217.3,1407.6 2193.7,1455.4 2224.4,1455.4 2201.8,1500.3 
			2320.2,1478.4 2308.1,1501.7 2353,1477.4 2351.5,1504.2 2389.4,1490.8 2471.1,1497.3 2470.7,1502.3 2390,1495.9 2346,1511.5 
			2347.4,1486.2 		"/>
	</g>
	<g>
		<polygon class="st0" points="2337.4,957.3 2318.3,957.3 2264.3,935.3 2243.5,929 2198.4,952.6 2196.1,948.1 2243,923.6 
			2266.1,930.5 2319.3,952.2 2337.4,952.2 		"/>
	</g>
	<g>
		<polygon class="st0" points="2418.4,1021.5 2362.1,985.2 2313.7,933.5 2317.4,930 2365.4,981.3 2421.2,1017.2 		"/>
	</g>
	<g>
		<polygon class="st0" points="2356.6,1114.4 2327.8,1090.9 2254.5,1090.9 2282.3,1079.5 2234,1071.2 2271.5,1062.8 2212.8,1045.2 
			2252.4,1032.5 2230.5,1025.6 2254.4,1019.9 2211.1,1013 2242.7,996.7 2221.3,996.7 2241.7,983.9 2219.2,976.4 2228.9,969.3 
			2212.6,969.3 2212.6,964.3 2244.5,964.3 2230.1,974.7 2253.5,982.5 2238.9,991.7 2263.5,991.7 2227.2,1010.4 2280.3,1018.9 
			2249.4,1026.3 2269.1,1032.5 2229.9,1045 2291.6,1063.6 2260.2,1070.5 2300.6,1077.5 2280.2,1085.8 2329.6,1085.8 2359.8,1110.5 
					"/>
	</g>
	<g>
		<polygon class="st0" points="2868.2,1178.8 2864.6,1175.3 2914.4,1123.4 2925.2,1045.1 2917.6,976.4 2890.9,933.6 2836.2,901.5 
			2769.4,908 2654.9,943 2653.4,938.1 2768.4,903 2837.4,896.3 2894.5,929.9 2894.8,930.4 2922.5,974.7 2930.3,1045.2 
			2930.2,1045.5 2919.2,1125.7 		"/>
	</g>
	<g>
		<polygon class="st0" points="2662,1021.4 2658.8,1017.4 2714.3,973.7 2748.4,938.3 2826.1,910.8 2827.8,915.5 2751.2,942.7 
			2717.7,977.5 2717.6,977.6 		"/>
	</g>
	<g>
		<polygon class="st0" points="2730.7,1102.4 2727.5,1098.5 2760.9,1070.9 2768.6,1066.8 2743.7,1066.8 2743.3,1061.8 
			2796.3,1053.9 2773.6,1037.5 2802.5,1036.1 2778.5,1027 2829.1,1019.8 2793.2,1016.1 2854.7,999.8 2766.2,979.6 2825.3,979.6 
			2799.2,964.4 2823.3,964 2787.4,954.9 2829.4,943.1 2812,943.1 2851.3,929.4 2853,934.2 2842,938 2866.1,938 2807,954.6 
			2861.3,968.5 2817.5,969.2 2844,984.7 2811.1,984.7 2875.9,999.5 2821.3,1013.9 2870.8,1019 2798.8,1029.2 2827.3,1039.9 
			2788.3,1041.8 2809.4,1057.1 2778.1,1061.7 2788.9,1061.7 2763.8,1075.2 		"/>
	</g>
	<g>
		<polygon class="st0" points="2766.1,1102.9 2765.2,1097.9 2804.9,1091.3 2778.8,1085.5 2821.9,1072 2804.9,1057.3 2851.3,1048.8 
			2834.4,1039.4 2857.7,1029.1 2859.7,1033.7 2845.8,1039.9 2866.1,1051.3 2816.2,1060.4 2832.1,1074.1 2798.4,1084.7 2831.5,1092 
					"/>
	</g>
	<g>
		<polygon class="st0" points="2295.6,1119.4 2229.4,1113.9 2261.6,1104.5 2198.9,1080.4 2241.2,1080.4 2211.2,1060.9 2214,1056.7 
			2258.4,1085.4 2226.2,1085.4 2277.5,1105.1 2257.1,1111.1 2296,1114.3 		"/>
	</g>
	<g>
		<polygon class="st0" points="2526.5,929.5 2504,907 2488.2,924.9 2443.8,907 2443.8,916.3 2400.2,906.5 2400.2,921.1 2363.8,908 
			2373.3,924.9 2322.6,920.1 2323.1,915.1 2364.1,918.9 2352.7,898.6 2395.1,913.9 2395.1,900.1 2438.7,910 2438.7,899.5 
			2486.8,918.9 2503.8,899.6 2527.3,923.1 2561.2,903.3 2561.2,911.2 2629.7,886.5 2613,905.1 2691.3,887.5 2669.2,905.4 
			2753.1,892.7 2717.7,905.8 2768.8,903 2769.1,908 2684.3,912.8 2705.1,905.1 2651.6,913.2 2671.3,897.2 2598.5,913.5 
			2612.4,898.2 2556.1,918.4 2556.1,912.1 		"/>
	</g>
	<g>
		<polygon class="st0" points="2699.7,2177.6 2695.5,2160.8 2659.2,2131 2616.6,2114.6 2616.4,2114.5 2579.7,2091.1 2528.7,1979.3 
			2528.7,1909.9 2522.2,1843 2522.2,1842.8 2528.9,1681.8 2556.1,1690.5 2556.1,1662.6 2580.3,1681 2590.7,1648.8 2606.5,1672.4 
			2600.8,1647.3 2643.2,1671.8 2637.9,1624.3 2706.9,1632.7 2680.3,1600.8 2739.2,1630.3 2711,1573.6 2746.1,1585 2737.9,1555.8 
			2800.1,1571.1 2785,1524.5 2822.2,1529.6 2791.6,1490.3 2859.9,1496.7 2833.1,1460.3 2867.4,1466.9 2852.4,1445 2896,1459.4 
			2896,1423.9 2930.6,1428.7 2920.1,1384.8 2937.7,1384.8 2930.5,1351.9 2964.7,1362.5 2932.6,1290.1 2952.1,1290.1 2920.7,1249.9 
			2952.2,1259.7 2922.3,1202.5 2949.3,1214.5 2896.5,1145.1 2900.5,1142 2965.3,1227.3 2933.5,1213 2962.4,1268.2 2934.7,1259.6 
			2962.5,1295.2 2940.4,1295.2 2973.9,1370.6 2937.3,1359.3 2944,1389.9 2926.5,1389.9 2937.2,1434.7 2901,1429.7 2901,1466.4 
			2865,1454.5 2878.5,1474.2 2844.9,1467.7 2870.7,1502.8 2802.8,1496.4 2833.9,1536.4 2792.3,1530.6 2807.8,1578.2 2745.2,1562.8 
			2753.5,1592.7 2720.9,1582.2 2750.5,1641.6 2699.8,1616.3 2719.1,1639.2 2643.7,1630.1 2649.3,1681.2 2608.3,1657.5 2617.6,1698 
			2592.3,1660.3 2583,1689.4 2561.2,1672.8 2561.2,1697.5 2533.7,1688.7 2527.2,1842.9 2533.8,1909.7 2533.8,1978.2 2583.6,2087.6 
			2618.9,2110.1 2661.8,2126.5 2700,2158 2704.6,2176.3 		"/>
	</g>
	<g>
		<polygon class="st0" points="2184.1,1807.7 2184.1,1779.4 2189.2,1779.4 2189.2,1797.8 2237.9,1762.8 2230,1789.7 2275.6,1771.8 
			2288,1798.1 2315.2,1765.2 2342.9,1798.8 2378.4,1754.4 2390.3,1776.7 2441.8,1728.3 2441.8,1746.7 2471,1705.8 2471,1737.9 
			2501.3,1686.1 2505.7,1688.7 2466,1756.6 2466,1721.6 2436.7,1762.5 2436.7,1740 2389,1785 2377.5,1763.6 2342.9,1806.8 
			2315.2,1773.2 2286.8,1807.5 2273,1778.3 2222.2,1798.3 2228.9,1775.6 		"/>
	</g>
	<g>
		<polygon class="st0" points="2413,2152.9 2409.4,2118.2 2382.7,2129.3 2382.7,2036.6 2354.2,2042.6 2367.5,1983.6 2340.8,2001.5 
			2361.2,1930.2 2326.1,1947 2326.1,1857.3 2301,1874.8 2301,1833.7 2288.6,1846.1 2294.1,1791.4 2299.1,1791.9 2295,1832.5 
			2306,1821.5 2306,1865.1 2331.2,1847.6 2331.2,1938.9 2369.2,1920.7 2349.4,1989.6 2375.3,1972.4 2360.9,2036 2387.8,2030.4 
			2387.8,2121.7 2413.7,2110.9 2415.9,2131.6 2420,2121.2 2430.2,2130 2437.2,2111.1 2441.9,2118.3 2444.8,2105.9 2449.8,2107.1 
			2444,2131.1 2438.4,2122.4 2432.4,2138.5 2422.1,2129.7 		"/>
	</g>
	<g>
		<path class="st0" d="M2610.2,2226.8l-25.1-24.1l-1.5-11.4l-33.7-35.9l38.4,11.8l15.5,20.1L2610.2,2226.8z M2589.9,2200.2
			l12.9,12.4l-3.8-23.3l-13.7-17.8l-18.6-5.7l21.8,23.2L2589.9,2200.2z"/>
	</g>
	<g>
		<path class="st0" d="M2721.8,2220.4l-35.2-19.1l-15.7,5.2l-19.7-17.3l15.1-5.4l-24.7-19.9h36.2L2721.8,2220.4z M2687,2195.7
			l15.9,8.6l-27.6-35.5H2656l20.6,16.6l-15.5,5.6l11,9.7L2687,2195.7z"/>
	</g>
	<g>
		<polygon class="st0" points="2738.5,2216 2698.6,2198.3 2700.6,2193.7 2721.2,2202.8 2706.1,2184.2 2691.2,2171.1 2689.3,2180 
			2684.3,2178.9 2688.2,2161.6 2709.9,2180.8 		"/>
	</g>
	<g>
		<polygon class="st0" points="2540.4,2237.8 2497.1,2222.9 2493.3,2235.1 2456.6,2214.3 2418.5,2164.3 2418.5,2125.5 
			2423.6,2125.5 2423.6,2162.6 2460,2210.4 2490.4,2227.6 2493.9,2216.4 2535.3,2230.7 2535.3,2206.3 2563.2,2212.5 2557.5,2195.5 
			2587.8,2198.9 2587.2,2203.9 2564.9,2201.4 2570.9,2219.5 2540.4,2212.6 		"/>
	</g>
	<g>
		<polygon class="st0" points="2634.6,2223 2605.8,2214.8 2607.2,2209.9 2629.5,2216.3 2629.5,2209.8 2659.4,2209.8 2659.4,2199.2 
			2671.8,2201.1 2671.1,2206.1 2664.5,2205.1 2664.5,2214.9 2634.6,2214.9 		"/>
	</g>
	<g>
		<polygon class="st0" points="2558.9,2244.8 2519.5,2244.8 2492.7,2225.9 2495.7,2221.7 2521.1,2239.8 2557.7,2239.8 2585.8,2225 
			2596.9,2210.8 2600.9,2213.9 2589.2,2228.9 		"/>
	</g>
	<g>
		<polygon class="st0" points="2649,2237 2605.6,2222 2607.3,2217.3 2648.6,2231.5 2673.9,2217.8 2684.5,2197.3 2689,2199.6 
			2677.7,2221.5 		"/>
	</g>
	<g>
		<path class="st0" d="M2112.9,2301.4h-5.1v-15.7l9,4.3l2.8-17.2l2.6,0.5c1.5,0.3,12.1,2.5,17.8,3.6c-0.8-2.7-2.2-6.9-3.5-10.5
			l-1.1-3l8.8-1.1l-20.7-6.5l5.4-13.3l-31.2-6.8l8.1-10.7l-27.3-6.6l7.6-8.8l-20.9,2.5l-0.6-5l33.9-4.1l-10.7,12.4l26.7,6.5l-8,10.5
			l29.4,6.4l-5.6,13.7l37.7,11.8l-25.5,3.3c4.3,12.2,3.6,13.1,2.6,14.1c-0.7,0.7-1.7,1-2.7,0.8c-0.9-0.2-10.8-2.3-18.5-3.8l-3,18.6
			l-7.8-3.7V2301.4z"/>
	</g>
	<g>
		<path class="st0" d="M2203.8,2278.2l-43.5-12.4l-10.4-8.7l23.7-8.1l-23.7-14.7l20.3-12.7l-38.1-3l10.7-17.6h-36.8l-26.7-9
			l-13.4-107.6l0.1-0.5l52.6-188.4l22.1-79.6l61.9-54.5l3.4,3.8l-60.8,53.5l-21.7,78.1l-52.4,187.9l12.9,103.4l22.9,7.8h45
			l-11.2,18.2l45.2,3.6l-26.4,16.5l25.9,16l-10.6,3.6L2203.8,2278.2z M2162.7,2261.2l19.5,5.6l-13.1-10.9l-9.1,3.1L2162.7,2261.2z"
			/>
	</g>
	<g>
		<polygon class="st0" points="2169.3,2300.5 2134.1,2294 2119.1,2296.3 2118.4,2291.3 2134.1,2288.9 2157.3,2293.1 2142.8,2274 
			2146.8,2270.9 		"/>
	</g>
	<g>
		<polygon class="st0" points="2119.9,2319.3 2079.3,2307.6 2056.5,2303.9 2057.3,2298.9 2080.6,2302.6 2107.4,2310.4 
			2096.3,2294.8 2078.5,2282.8 2081.3,2278.6 2099.9,2291.1 		"/>
	</g>
	<g>
		<polygon class="st0" points="651.8,2138.5 629.5,2128 582.6,2128 527.8,2092.9 544.8,2044.8 527.2,2044.8 547.6,1989.3 
			527.2,1989.3 628.1,1716.2 629.1,1715.7 769.1,1658 866.5,1598 821.9,1598 889.1,1539.6 821.8,1539.6 910.9,1464.1 841.3,1486 
			885.9,1396.5 839.7,1396.5 895.1,1346.1 841.9,1346.1 887.8,1263.8 892.2,1266.3 850.5,1341 908.3,1341 852.8,1391.4 
			894.1,1391.4 851.1,1477.6 933.4,1451.7 835.6,1534.5 902.6,1534.5 835.5,1592.9 884.4,1592.9 771.3,1662.6 632.1,1720 
			534.5,1984.2 554.9,1984.2 534.5,2039.7 551.9,2039.7 533.9,2090.8 584.1,2122.9 630.7,2122.9 645.6,2130 644.8,2122.9 
			661.9,2122.9 661.9,2128 650.5,2128 		"/>
	</g>
	<g>
		<path class="st0" d="M673.2,2140.4l-26.3-26.3l-14.2-15.5l15.1-8.8l7.2-20.3l18.2,39V2140.4z M650.6,2110.6l17.5,17.5v-18.5
			l-12.5-26.8l-3.7,10.4l-11.2,6.5L650.6,2110.6z"/>
	</g>
	<g>
		<path class="st0" d="M729,2152l-28.8-26.1l9.3-15.2l-6.3-30.1l25.8,31.9V2152z M706.7,2125l17.2,15.6v-26.2l-11.4-14.1l2.4,11.5
			L706.7,2125z"/>
	</g>
	<g>
		<path class="st0" d="M771.7,2151.8l-29.2-25.2v-44.4l29.2,42.4V2151.8z M747.6,2124.3l19,16.4v-14.5l-19-27.7V2124.3z"/>
	</g>
	<g>
		<polygon class="st0" points="766.7,2133 766.7,2099.1 754.1,2086.6 758.3,2077.3 744,2069.2 713,2057.4 701.1,2027.9 705.8,2026 
			716.9,2053.4 746.4,2064.7 764.8,2075.1 760.2,2085.5 771.7,2097 771.7,2117.9 781.7,2104.7 772.4,2071.8 755.6,2048.8 
			718.9,2036.5 712.4,2008.2 741.7,1897.7 742,1897.3 787.2,1835.5 787.7,1835.2 921.5,1760.8 1065.2,1760.8 1130.9,1713.6 
			1112.8,1745.4 1181.6,1701 1154.3,1744.2 1251.6,1692.4 1224,1731.5 1289.7,1691.7 1289.7,1711.5 1375.9,1661 1376.1,1660.9 
			1479.1,1623.7 1480.8,1628.5 1378.1,1665.6 1284.7,1720.3 1284.7,1700.7 1205.8,1748.4 1235.2,1706.9 1139.8,1757.7 1165,1717.7 
			1098,1760.9 1114.9,1731.3 1066.8,1765.9 922.8,1765.9 790.6,1839.4 746.3,1899.9 717.6,2008.3 723.2,2032.6 758.7,2044.5 
			777,2069.6 787.3,2105.7 		"/>
	</g>
	<g>
		<polygon class="st0" points="733.3,2149.7 723.7,2134.7 731.4,2105.5 724.3,2091.7 710.4,2069.3 715.3,2069.3 702.1,2063 
			701.8,2062.7 674.4,2037.5 677.8,2033.8 704.9,2058.7 737.7,2074.3 719.5,2074.3 728.7,2089.3 736.8,2104.9 729.2,2133.8 
			735,2142.8 744,2137.4 756.4,2133.5 757.9,2138.3 746.2,2142 		"/>
	</g>
	<g>
		<polygon class="st0" points="682.4,2139.3 668.9,2127.4 672.3,2123.6 678.6,2129.1 679.3,2122.9 691.5,2122.9 683.6,2091.5 
			667.1,2066.1 675.1,2061.2 646.3,2047.7 626.4,2032.2 629.5,2028.2 649,2043.3 685.8,2060.6 674.2,2067.7 688.3,2089.4 698,2128 
			683.8,2128 		"/>
	</g>
	<g>
		<polygon class="st0" points="707.7,2147.5 692.7,2127 696.8,2124 703.1,2132.6 707.7,2132.6 		"/>
	</g>
	<g>
		<polygon class="st0" points="747.6,2145.3 727.1,2127.4 730.5,2123.6 742.6,2134.1 742.6,2125.5 747.6,2125.5 		"/>
	</g>
	<g>
		<polygon class="st0" points="636.4,2149 590.7,2127.8 592.8,2123.2 636.9,2143.6 660.3,2137.3 669.3,2132 671.9,2136.4 
			662.3,2142.1 		"/>
	</g>
	<g>
		<polygon class="st0" points="689.6,2149.4 678.5,2135.8 682.4,2132.6 691.1,2143.2 704.1,2137.4 706.2,2142 		"/>
	</g>
	<g>
		<polygon class="st0" points="2009.2,2316.9 1967.7,2293.8 1937.4,2285.7 1926.1,2244.5 1887.3,2225.2 1921.2,2229.6 
			1912.6,2180.6 1898.7,2147.6 1911.3,2141.3 1877.5,2094.2 1877.5,2067.1 1850,2052.6 1883.9,2032.5 1867,2001.7 1887.9,2001.7 
			1865.1,1973.6 1895,1938 1861.1,1921.8 1884.9,1898 1851.8,1875 1880.3,1828.5 1865.6,1737.7 1903.3,1698.7 1797.5,1698.7 
			1835.9,1674.6 1718,1674.6 1754.8,1653.3 1628.5,1677.7 1676.4,1651.7 1586.8,1676 1602.9,1644 1521.1,1644 1520.8,1643.8 
			1407.5,1606.1 1394.6,1506.9 1334.7,1523.9 1372.7,1453.4 1336.6,1453.4 1365.8,1325.5 1370.7,1326.6 1342.9,1448.3 
			1381.2,1448.3 1344.8,1515.8 1398.8,1500.4 1412.2,1602.3 1522,1638.9 1611.1,1638.9 1596.4,1668.2 1717.1,1635.5 1659.9,1666.5 
			1783.3,1642.7 1736.9,1669.5 1853.5,1669.5 1815.1,1693.6 1915.2,1693.6 1871.1,1739.4 1885.6,1829.6 1858.6,1873.6 
			1892.7,1897.3 1869.8,1920.3 1903.1,1936.2 1871.6,1973.6 1898.5,2006.8 1875.6,2006.8 1890.7,2034.4 1860.4,2052.3 
			1882.6,2064.1 1882.6,2092.5 1918.9,2143.2 1905.2,2150 1917.5,2179.1 1917.6,2179.4 1927.4,2235.5 1916.5,2234.1 1930.4,2241 
			1941.5,2281.6 1969.6,2289.1 1998.1,2304.9 1994.8,2297.7 2033.9,2307.6 2032.9,2298.5 2053.6,2301.3 2044.7,2288.9 
			2061.6,2291.7 2059.6,2281.6 2081.1,2277.9 2062.2,2265.6 2073.7,2262.6 2047.5,2248.3 2057.7,2244 2029.5,2241.8 2015.8,2231.7 
			2018.8,2227.6 2031.4,2236.9 2079.1,2240.6 2059.2,2248.9 2087.4,2264.3 2074.6,2267.6 2094.7,2280.7 2065.5,2285.7 2067.9,2298 
			2056.1,2296 2064.7,2307.9 2038.6,2304.4 2039.6,2314.3 2003.8,2305.2 		"/>
	</g>
	<g>
		<polygon class="st0" points="129.5,1992.2 42.4,1969.3 119.5,1940.4 158.7,1905.6 201.4,1870.6 167.5,1870.6 203.1,1833.9 
			178.2,1822.6 284.9,1746.9 208.4,1746.9 325.7,1710.1 264.3,1700.1 529.5,1639.1 634.8,1534.6 713.1,1431.7 713.1,1431.6 
			759.7,1382.7 716.7,1399 781.4,1342 875.6,1160.2 1042.6,999.8 1042.9,999.6 1275.4,880.1 1275.7,880 1512.7,830.6 1513.1,830.7 
			1784.8,859.2 2017,910.6 2197.5,929.2 2197,934.3 2016.2,915.7 2016,915.6 1784,864.2 1512.9,835.8 1277.1,884.9 1045.6,1003.9 
			879.7,1163.3 785.5,1345.1 740.9,1384.4 778.7,1370.1 716.9,1435 638.6,1538 638.5,1538.1 532.1,1643.7 531.4,1643.9 
			290.6,1699.2 347.6,1708.5 241.5,1741.8 300.8,1741.8 188.4,1821.6 211.7,1832.2 179.4,1865.6 215.6,1865.6 161.9,1909.5 
			122.2,1944.8 59.1,1968.4 129.8,1987.1 198.6,1978.8 182,1987.1 260.8,1987.1 330.6,1971.9 457,1940.8 446.7,1957.7 514,1920.6 
			562,1897.1 564.2,1901.7 516.3,1925.1 432.4,1971.3 446.2,1948.7 331.7,1976.8 261.3,1992.2 160.5,1992.2 170.2,1987.4 		"/>
	</g>
	<g>
		<polygon class="st0" points="1726.7,2041.9 1645.9,2030.5 1592.7,2020.5 1438.6,1897.1 1324.9,1764.7 1348.1,1678.1 1353,1679.4 
			1330.5,1763.4 1442.3,1893.7 1594.9,2015.8 1646.8,2025.5 1721.6,2036 1721.6,2017.3 1733.3,2019.3 1719.7,1985.5 1745.4,1994.4 
			1732.2,1977.3 1713.2,1962.8 1675.3,1969.4 1654.7,1953.3 1657.8,1949.3 1676.6,1964 1714.5,1957.4 1735.8,1973.6 1759.8,2004.7 
			1728.6,1993.9 1741.3,2025.8 1726.7,2023.3 		"/>
	</g>
	<g>
		<polygon class="st0" points="1768,1950 1704.6,1936.2 1704.2,1936 1656.9,1907.4 1656.7,1907.2 1545,1803.3 1559.7,1742.2 
			1594.2,1696.6 1630.1,1659.4 1633.7,1662.9 1598,1700 1564.4,1744.4 1550.6,1801.6 1660,1903.3 1706.5,1931.4 1769,1945 		"/>
	</g>
	<g>
		<polygon class="st0" points="1875.2,2043.5 1848.9,2029.7 1851.3,2025.2 1868.8,2034.4 1864.2,2001.1 1836.2,1983.6 1844,1975.8 
			1824.7,1975.8 1834.5,1967.2 1806.4,1962.7 1823.7,1951.1 1793,1954.5 1792.5,1949.4 1843.7,1943.9 1820,1959.7 1846,1963.9 
			1838.2,1970.7 1856.2,1970.7 1844.3,1982.6 1868.9,1998 		"/>
	</g>
	<g>
		<polygon class="st0" points="1776,2060.6 1751.5,2041.3 1723.7,2036 1724.6,2031 1753.7,2036.6 1770.9,2050.2 1770.9,2025.6 
			1750.7,2001.1 1754.6,1997.9 1776,2023.8 		"/>
	</g>
	<g>
		<polygon class="st0" points="1853.7,2062.3 1831.4,2041.4 1792.4,2036 1793.1,2031 1833.7,2036.6 1846.5,2048.5 1842.4,2021.9 
			1817.4,2005.8 1828.8,2005.8 1817.4,2000.5 1831.5,1982.9 1835.5,1986 1825.4,1998.6 1851.7,2010.8 1834.6,2010.8 1847,2018.8 		
			"/>
	</g>
	<g>
		<polygon class="st0" points="1799.6,2055.2 1772.3,2041.2 1774.6,2036.7 1785.8,2042.4 1778.8,2030.9 1804.4,2030.9 1789.6,2012 
			1820.8,2006.6 1802.2,1988.1 1827.3,1983.1 1802.2,1978.1 1811.2,1969.1 1780.8,1961.5 1792.6,1948.3 1730.5,1952.8 1730,1952.7 
			1696.1,1942.8 1697.5,1938 1731,1947.7 1804.7,1942.3 1790.2,1958.7 1821.1,1966.4 1812.5,1975 1853.2,1983.1 1812.5,1991.2 
			1831.3,2010 1798.8,2015.5 1814.8,2036 1787.8,2036 		"/>
	</g>
	<g>
		<polygon class="st0" points="1673.6,2051.5 1616.6,2024.9 1618.8,2020.3 1674,2046.1 1713.1,2035.1 1714.5,2039.9 		"/>
	</g>
	<g>
		<polygon class="st0" points="2649.4,1495.8 2648.2,1490.9 2765.7,1461.4 2812.9,1476.3 2811.4,1481.1 2765.6,1466.6 		"/>
	</g>
	<g>
		<polygon class="st0" points="1911.5,1697.3 1907,1695 1913.9,1681.3 1863.3,1681.3 1946.5,1628.6 1884.5,1628.6 1979.9,1551.8 
			1983.1,1555.8 1898.9,1623.6 1964,1623.6 1880.7,1676.2 1922.1,1676.2 		"/>
	</g>
	<g>
		<polygon class="st0" points="176,1986.4 173.3,1982.1 210.2,1959.6 178.1,1967 79.8,1979 79.2,1973.9 177.4,1962 239.6,1947.5 		
			"/>
	</g>
	<g>
		<path class="st0" d="M959.2,1662.7l-4.2-2.8l97.2-164.1h-57.1l57.4-96.9l-43.9-5.8l44.3-76.4l-67.5-20.5l41-65.9l-30.5-11.6
			l27.7-49.5l-29.8-9.4l128.8-87.6l3.2,3.9l-76.5,72.1l32.2-4l-20.2,37.3l33.4,21.7l-14.5,48.7l66.9,11.5l-67,94.2l14.7,21.8
			l-48.8,80.9l84.5-20.7L959.2,1662.7z M1004,1490.7h57.1L981,1626l136.6-178.2l-82.3,20.2l53.4-88.5l-14.9-22l64.4-90.5l-64.6-11.1
			l15.1-50.6l-34.1-22.1l17.7-32.8l-37.9,4.7l64.5-60.8l-93.7,63.8l25.7,8.1l-27.8,49.8l30.8,11.7l-40.8,65.5l67.3,20.4l-43.7,75.4
			l44,5.8L1004,1490.7z"/>
	</g>
</g>
</svg>
