<?xml version="1.0" encoding="utf-8"?>
<!-- Generator: Adobe Illustrator 24.1.1, SVG Export Plug-In . SVG Version: 6.00 Build 0)  -->
<svg version="1.1" id="Capa_1" xmlns="http://www.w3.org/2000/svg" xmlns:xlink="http://www.w3.org/1999/xlink" x="0px" y="0px"
	 viewBox="0 0 3000 3000" style="enable-background:new 0 0 3000 3000;" xml:space="preserve">
<style type="text/css">
	.st0{fill:#020203;}
</style>
<g>
	<g>
		<polygon class="st0" points="1619.6,778.3 1613.9,739 1552.1,708.4 1453.4,734.2 1451.6,727.4 1552.9,701 1620.4,734.3 
			1626.5,777.3 		"/>
	</g>
	<g>
		<polygon class="st0" points="1575.8,785.5 1508.3,770.1 1466.7,732.2 1471.4,727.1 1511.6,763.7 1576.2,778.5 1620.7,774.3 
			1621.4,781.3 		"/>
	</g>
	<g>
		<polygon class="st0" points="1512.8,769.6 1503.3,747 1503.3,721.2 1510.3,721.2 1510.3,745.6 1519.3,766.9 		"/>
	</g>
	<g>
		<path class="st0" d="M1542.2,739.6l-17.7-12.6l8.2-20.1h14.7l11.6,7.8l1.7,12.9l-5.7,8.2L1542.2,739.6z M1533.1,724.6l10.4,7.4
			l7.2-2.1l2.8-4l-0.9-7.1l-7.2-4.8h-7.9L1533.1,724.6z"/>
	</g>
	<g>
		<polygon class="st0" points="1839.4,747.2 1831.5,716.3 1876.2,669.8 1965.2,655.7 1966.3,662.6 1879.6,676.4 1839.3,718.4 
			1846.2,745.4 		"/>
	</g>
	<g>
		<polygon class="st0" points="1845.2,749 1843.6,742.2 1882.5,733.1 1925.8,711.1 1939.5,661.9 1946.2,663.7 1931.7,716 
			1885,739.7 		"/>
	</g>
	<g>
		<polygon class="st0" points="1932.9,711.7 1926,710.5 1931.1,682.2 1923.6,665.5 1930,662.6 1938.4,681.3 		"/>
	</g>
	<g>
		<path class="st0" d="M1863,712.2l-7.7-3.6l-2.8-10.2l7.3-9.6l11.8-5.3l13.8,11.2l-11.1,15.4L1863,712.2z M1861.2,703.7l2.7,1.3
			l6.4-1.2l5.6-7.8l-5.3-4.3l-6.3,2.8l-4.1,5.4L1861.2,703.7z"/>
	</g>
	<g>
		<path class="st0" d="M1786.4,1065.3l-52.6-8.8l-22.6-25.3l-2.7-33.2l-3.5-4.2l5.4-35.2l14.4-19.7l35-21h30.4l44.9,22.9l12.7,38.2
			l-15.1,23.6l-18.4,3.8l0.8,5.8l12.2,1.3l21.3-11.2l-6.5,39.1L1786.4,1065.3z M1737.4,1050l48.2,8l50.2-21.5l3.6-21.4l-10.7,5.6
			l-19.7-2.1l-2.5-17.7l21.9-4.6l11.7-18.4l-10.8-32.3l-40.8-20.8h-26.7l-32.2,19.3l-12.5,17.2l-4.7,30.3l12.4,14.6l36.4,5.7
			l-12.1,16.1h-26.2l-5.5-7.5l0.6,7.6L1737.4,1050z M1726.4,1021.2h19.2l3-4l-27.5-4.3l-6.7-7.8L1726.4,1021.2z"/>
	</g>
	<g>
		<polygon class="st0" points="1206.4,713.2 1170.3,550.2 1123.3,397.6 1096.1,324.5 1111.8,246.2 1186.6,211.5 1349.3,233.5 
			1349.7,233.7 1539.1,309.2 1536.5,315.7 1347.5,240.3 1187.7,218.7 1118,251.1 1103.4,324 1130,395.5 1177.1,548.5 1177.1,548.6 
			1211.5,703.9 1265.3,684.7 1325.5,567.1 1414.4,505.7 1371.4,476.4 1480.6,429 1511.7,375.3 1450.6,315.5 1283.6,248.7 
			1190.8,233.6 1191.9,226.7 1285.5,241.9 1285.8,242.1 1454.5,309.5 1520.4,374 1485.5,434.5 1385.8,477.8 1426.8,505.7 
			1330.9,571.9 1270.2,690.4 		"/>
	</g>
	<g>
		<polygon class="st0" points="1352,484.8 1287.5,473.7 1218.6,431.2 1270.3,418.2 1221.6,421.1 1200.6,393.7 1237,382.9 
			1197,375.3 1167,340 1198.5,343.4 1156.6,326 1140.1,278.4 1188.6,243.4 1265.5,249.4 1265,256.4 1190.6,250.6 1148.4,281.1 
			1162.2,320.8 1246.3,355.5 1183.7,348.8 1200.7,368.9 1266.6,381.5 1212.3,397.6 1224.9,413.9 1307,409 1308.1,415.8 1236.3,434 
			1290,467.1 1353.2,477.9 		"/>
	</g>
	<g>
		<polygon class="st0" points="1300.2,556.5 1292.6,528.2 1244.5,537 1271.3,501.1 1236.9,492.7 1197.4,473.9 1206.6,462 
			1141.9,390 1165.9,396.5 1135.9,359.3 1156.4,362.4 1144.5,332.4 1140.8,305.7 1147.8,304.7 1151.3,330.6 1167.4,371.2 
			1152.7,369 1184.8,408.8 1162.9,402.9 1215.8,461.7 1208.2,471.3 1239.3,486.1 1283.2,496.8 1260.8,526.9 1297.7,520.1 
			1303.6,542.2 1350,491 1355.2,495.7 		"/>
	</g>
	<g>
		<polygon class="st0" points="2148.3,543.1 2073.3,501.4 2073,501.2 1986.5,426.9 1879.8,379 1912.5,346.7 1834.5,354.7 
			1767.8,306.1 1826.2,217.8 1826.5,217.4 1970.7,94.1 2060.2,62.1 2062.6,68.7 1974.2,100.3 1831.5,222.4 1777.3,304.4 
			1836.5,347.5 1931.6,337.7 1892,376.8 1990.3,420.9 1990.6,421.3 2077.3,495.6 2141.6,531.4 2144.9,380 2151.7,217.1 
			2149.9,143.6 2136.9,72.5 2062.9,53.4 1910.1,103.6 1761.6,255.3 1756.6,250.4 1906.3,97.4 2062.7,46.1 2142.9,66.8 2156.9,143.2 
			2158.7,217.2 2158.7,217.3 2151.9,380.3 		"/>
	</g>
	<g>
		<polygon class="st0" points="1949.6,344.9 1947.2,338.3 2007.3,316.2 2054.1,273.9 1980.3,269.1 1980.1,262.2 2061.7,252.1 
			2071.1,233.8 2014.8,227.8 2077.3,203.5 2090.4,180.7 2030.1,198.6 2106.5,149.2 2112.8,107.6 2065.7,85.3 1993.7,104.5 
			1991.9,97.7 2066.4,77.9 2120.5,103.5 2112.9,153.3 2074.8,178 2105.2,169 2082.1,209.2 2044.2,223.9 2082,227.9 2066.3,258.6 
			2017.9,264.6 2071.1,268 2011,322.3 		"/>
	</g>
	<g>
		<polygon class="st0" points="2013.6,406 1948.5,356.2 1952.7,350.7 2007.6,392.6 2009.4,369.8 2047,369.8 2019.4,344.3 
			2060.7,325.8 2088.5,305.6 2079.4,297.4 2120.7,230.1 2100.2,239.9 2124.6,194.8 2110.5,199.7 2118.9,156.9 2117.8,130.8 
			2124.8,130.5 2126,157.4 2119.7,189.1 2139.3,182.3 2116.6,224.3 2139,213.6 2088.4,296.1 2099.7,306.2 2064.2,331.9 
			2031.9,346.3 2064.8,376.8 2015.9,376.8 		"/>
	</g>
	<g>
		<polygon class="st0" points="1494.2,268.6 1365.5,247.4 1366.6,240.5 1493.1,261.3 1591.7,211.7 1665.7,201.5 1666.1,201.5 
			1758.1,208 1884.2,120.1 1888.2,125.8 1760.1,215.2 1666,208.5 1593.8,218.5 		"/>
	</g>
	<g>
		<polygon class="st0" points="1791.7,1223.2 1790.5,1223.1 1589.2,1192.7 1588.7,1192.5 1294,1042.6 1219.1,943.9 1187,798.2 
			1187,797.8 1194.5,659 1201.5,659.3 1194,797.7 1225.6,940.9 1298.6,1037.1 1591.4,1186 1790.3,1215.9 1928.6,1134.5 2129,937.4 
			2194.9,781.2 2204.9,640.7 2142.4,512.3 2148.7,509.2 2212,639.4 2211.9,640.3 2201.8,782.8 2134.9,941.4 2134.4,941.9 
			1932.9,1140.1 		"/>
	</g>
	<g>
		<polygon class="st0" points="1731.9,1113.1 1703.2,1113.1 1650.3,1097.6 1600.9,1056 1582.9,945.7 1600.6,856.2 1594.4,812.7 
			1601.3,811.7 1607.7,856.4 1590,945.8 1607.4,1052.3 1653.7,1091.3 1704.2,1106.1 1730.8,1106.1 1787,1088.7 1782.5,1062.3 
			1789.4,1061.1 1795,1093.5 		"/>
	</g>
	<g>
		<polygon class="st0" points="1837.7,1098 1790.8,1094.6 1791.3,1087.6 1836.7,1090.9 1872.1,1078.8 1939.3,1001.3 1931.4,894.3 
			1871.1,827.9 1853.1,779 1859.7,776.6 1877.2,824.2 1938.2,891.4 1946.5,1003.7 1876.2,1084.9 		"/>
	</g>
	<g>
		<polygon class="st0" points="1776.2,1143.3 1715.5,1132.9 1700.8,1111.5 1706.5,1107.6 1719.6,1126.5 1776.4,1136.3 
			1823.2,1130.2 1853.5,1107.3 1863.7,1083 1870.2,1085.7 1859.2,1111.8 1826,1136.9 		"/>
	</g>
	<g>
		<polygon class="st0" points="1602.1,1056.9 1496.9,979.4 1397.6,964.3 1301.2,907.2 1304.8,901.2 1400,957.5 1499.7,972.7 
			1606.2,1051.3 		"/>
	</g>
	<g>
		<polygon class="st0" points="1945.9,1004.1 1939.8,1000.8 1993.3,901.8 2089.8,839.5 2093.6,845.4 1998.6,906.7 		"/>
	</g>
	<g>
		<polygon class="st0" points="797.5,2409 790.5,2409 790.5,2074.2 836.1,1866.9 941.8,1554.7 982.2,1337.5 982.6,1337 
			1141.8,1091.9 1244.3,1024.9 1219.1,943.5 1225.7,941.4 1252.6,1027.9 1146.8,1097 988.9,1340.2 948.6,1556.4 948.5,1556.7 
			842.8,1868.9 797.5,2075 		"/>
	</g>
	<g>
		<path class="st0" d="M848.3,2876l-0.6,0l-188.5-6.7l-0.3-0.1l-100.8-23.5L452.9,2822l-58.5-61.9l-20.6-89.2l39.1-129.3L537,2409
			l92.3-13.7l0.4,0l218.3,13.4h97.6l0.3,0.1l191.7,33.6l0.2,0.1l87.9,28.1l-55.8,108.1l-93.8,147.4l-20.5,78.6L848.3,2876z
			 M660.1,2862.3l187.1,6.7l202.5-69.7l19.8-76l0.3-0.5l94-147.7l51.8-100.3l-79.8-25.5l-191-33.5l-97.3,0l-218-13.4l-89.1,13.2
			l-121.2,129.5l-38.1,126l19.7,85.5l55.7,59l103.1,23.3L660.1,2862.3z"/>
	</g>
	<g>
		<polygon class="st0" points="2138.3,2737.6 2129.7,2724.6 2129.5,2724.2 2104.2,2651.5 2104.2,2651.1 2088.2,2452.5 
			2088.2,2452.2 2128.5,2074 2128.6,2073.7 2195,1826.9 2251.1,1550.2 2251.1,1459.3 2251.3,1458.9 2307.2,1253.3 2267.2,1140.8 
			2267.2,1140.7 2226.9,979.9 2194.9,782.6 2201.8,781.4 2233.7,978.5 2274,1138.8 2314.6,1253.1 2258.1,1460.3 2258.1,1550.9 
			2258.1,1551.2 2201.8,1828.5 2135.4,2075.3 2095.2,2452.6 2111.1,2650.1 2136,2721.5 2144.2,2733.7 		"/>
	</g>
	<g>
		<path class="st0" d="M2177.8,2887.8H2152l-14.2-21.8v-43.7l29.3,28.2L2177.8,2887.8z M2155.7,2880.8h12.8l-7.7-26.5l-16.1-15.5
			v25.2L2155.7,2880.8z"/>
	</g>
	<g>
		<path class="st0" d="M2088.1,2901.8l-15-16.1v-28.9l14.4-35.5l14.4,35.5v22.7L2088.1,2901.8z M2080.1,2882.9l6.9,7.4l8-12.9v-19.3
			l-7.4-18.3l-7.4,18.3V2882.9z"/>
	</g>
	<g>
		<path class="st0" d="M1968.6,2903.8l-11.4-26.3v-15.1l18.6-31l11.1,18.4v22.9L1968.6,2903.8z M1964.2,2876l5.4,12.3l10.3-17.6
			v-19.1l-4.1-6.8l-11.6,19.4V2876z"/>
	</g>
	<g>
		<path class="st0" d="M2227.9,2877.7h-11.2l-14-8.5l-5.9-46.5l31.1,23.8V2877.7z M2218.7,2870.7h2.2v-20.8l-15.1-11.5l3.4,26.6
			L2218.7,2870.7z"/>
	</g>
	<g>
		<polygon class="st0" points="2146.2,2887.3 2124.7,2874.7 2117.7,2836.6 2087.3,2763.6 2114,2747.7 2139.4,2757.1 2166.9,2799.2 
			2187.6,2829.4 2187.6,2864.7 2175.6,2876.7 2170.7,2871.7 2180.6,2861.8 2180.6,2831.6 2161,2803.1 2134.8,2762.9 2114.7,2755.4 
			2096.1,2766.5 2124.5,2834.6 2131,2870.3 2149.7,2881.3 		"/>
	</g>
	<g>
		<polygon class="st0" points="2216.4,2839.4 2209.4,2839.4 2209.4,2806.2 2193,2775.5 2166.2,2746.3 2142.5,2739.6 2134.7,2748.8 
			2129.3,2744.3 2140,2731.6 2170,2740.1 2198.7,2771.4 2216.4,2804.5 		"/>
	</g>
	<g>
		<polygon class="st0" points="2191.5,2878.7 2181.3,2865.4 2186.9,2861.2 2193.5,2869.7 2204.3,2864 2207.6,2870.2 		"/>
	</g>
	<g>
		<polygon class="st0" points="2109.5,2887.8 2094.8,2887.8 2094.8,2880.8 2107.5,2880.8 2126,2869.5 2129.6,2875.5 		"/>
	</g>
	<g>
		<polygon class="st0" points="2076.6,2887.8 2027.8,2887.8 1996.4,2870.7 2000.9,2829.7 2019.9,2780.6 2048.4,2754.8 
			2081.8,2754.8 2093.5,2762 2089.9,2768 2079.8,2761.8 2051.1,2761.8 2025.8,2784.7 2007.8,2831.4 2003.9,2866.8 2029.6,2880.8 
			2076.6,2880.8 		"/>
	</g>
	<g>
		
			<rect x="1978.3" y="2870.1" transform="matrix(0.9065 -0.4222 0.4222 0.9065 -1027.1318 1108.6652)" class="st0" width="22.9" height="7"/>
	</g>
	<g>
		<polygon class="st0" points="1936.7,2893.1 1905.9,2858.7 1905.9,2816.7 1932.4,2784.7 1982.8,2758 2012.2,2763.5 2025.6,2780.5 
			2020.1,2784.8 2008.3,2769.9 1983.9,2765.3 1936.9,2790.3 1912.9,2819.2 1912.9,2856.1 1939.3,2885.5 1963.3,2880.9 
			1964.6,2887.7 		"/>
	</g>
	<g>
		<path class="st0" d="M1376.9,2879l14.1-35l34.9-20.1l-5.4,42L1376.9,2879z M1396.5,2848.9l-7.7,19.2l25.3-7.6l3-23.5
			L1396.5,2848.9z"/>
	</g>
	<g>
		<path class="st0" d="M1477,2900.6l-8.7-9.9v-28.1l19.9-43.1l9.9,47.7l-6.4,24.4L1477,2900.6z M1475.3,2888l3.1,3.5l7.2-4.4
			l5.3-20.1l-5.2-25.3l-10.3,22.4V2888z"/>
	</g>
	<g>
		<path class="st0" d="M1582,2893.9l-24.8-6.8l-6.5-23.4v-40.1l31.4,22.7V2893.9z M1562.9,2881.4l12.1,3.3V2850l-17.4-12.6v25.4
			L1562.9,2881.4z"/>
	</g>
	<g>
		<path class="st0" d="M1666.8,2895.8l-23.8-15.5v-43.1l14.8,12.8l9,22.9V2895.8z M1650,2876.5l9.8,6.4v-8.6l-7.8-20.1l-2-1.7
			V2876.5z"/>
	</g>
	<g>
		<path class="st0" d="M1390.7,2848.3l-5.6-9.4l3.6-38.5l0.9-0.9c43.4-43.4,45.8-44.2,46.7-44.5c1.5-0.5,5.1-0.5,22.5-0.2
			c9.5,0.2,21.4,0.4,23.8,0.1l1.1,6.9c-2.8,0.4-11.7,0.3-25,0c-7.8-0.2-17.4-0.4-20-0.1c-4.2,3.3-28.1,26.8-43.3,41.9l-3.1,33.7
			l4.4,7.4L1390.7,2848.3z"/>
	</g>
	<g>
		<polygon class="st0" points="1490.6,2887.7 1489.4,2880.8 1520.4,2875.5 1520.4,2863 1523.8,2824.9 1535.5,2781.4 1535.5,2763 
			1522.6,2748.7 1491.2,2754.8 1474.7,2772.2 1447.6,2818.9 1447.6,2846.3 1450.7,2869.7 1472.7,2875 1471,2881.8 1444.3,2875.4 
			1440.6,2846.5 1440.6,2817 1469,2767.9 1487.7,2748.4 1525.2,2741 1542.5,2760.3 1542.5,2782.3 1530.7,2826.1 1527.4,2863.4 
			1527.4,2881.4 		"/>
	</g>
	<g>
		
			<rect x="1428.9" y="2852.1" transform="matrix(0.2922 -0.9564 0.9564 0.2922 -1728.9213 3399.7085)" class="st0" width="7" height="31.6"/>
	</g>
	<g>
		<polygon class="st0" points="1579.5,2887.6 1577.5,2880.9 1610.2,2871 1607,2808.7 1585.8,2760.3 1566.8,2749.2 1541.5,2773.4 
			1536.6,2768.4 1565.8,2740.5 1591.3,2755.4 1613.9,2807 1617.4,2876.1 		"/>
	</g>
	<g>
		<polygon class="st0" points="1560,2887.8 1532.1,2887.8 1522,2881.4 1525.8,2875.5 1534.2,2880.8 1560,2880.8 		"/>
	</g>
	<g>
		<polygon class="st0" points="1666.6,2874.9 1660.1,2872.3 1670.6,2846.1 1660.1,2786.4 1625.8,2761.9 1594.5,2772.2 
			1592.3,2765.5 1627,2754.2 1666.5,2782.3 1677.9,2846.9 		"/>
	</g>
	<g>
		<polygon class="st0" points="1633.6,2885 1612.5,2876.8 1615.1,2870.3 1634.1,2877.7 1645.8,2875 1647.3,2881.8 		"/>
	</g>
	<g>
		<polygon class="st0" points="1912.9,2818.7 1906,2817.2 1939.2,2664.7 1898.8,2581 1898.8,2580.1 1905.9,2382.4 1840.4,2110.3 
			1840.4,1978 1840.8,1977.2 1957.6,1757.2 1963.8,1760.5 1847.4,1979.7 1847.4,2109.5 1913,2381.7 1912.9,2382.1 1905.8,2579.5 
			1946.5,2663.8 		"/>
	</g>
	<g>
		<polygon class="st0" points="1440.9,2758.8 1433.9,2757.9 1468.3,2493.1 1398.7,2238.2 1398.7,2237.9 1365.1,1939.7 1299.8,1829 
			1299.6,1828.5 1245,1610.2 1251.8,1608.5 1306.3,1826.3 1371.9,1937.4 1405.6,2236.9 1475.4,2492.6 1475.3,2493.3 		"/>
	</g>
	<g>
		<polygon class="st0" points="1666.8,2784.5 1659.8,2784.2 1670.8,2469.3 1670.8,2254.7 1626.7,2006 1630.3,1845.6 1551.3,1735.7 
			1557,1731.6 1637.4,1843.4 1637.3,1844.6 1633.7,2005.5 1677.8,2254 1677.8,2469.5 		"/>
	</g>
	<g>
		<polygon class="st0" points="1151.8,2450 1144.9,2449.1 1151.2,2402.3 1110.8,2402.3 1119.3,2344.5 1060.3,2332.7 1074,2270.9 
			1044.7,2248 1009.1,2129.4 1015.8,2127.4 1050.7,2243.9 1081.8,2268.1 1068.7,2327.2 1127.2,2338.9 1118.9,2395.3 1159.2,2395.3 
					"/>
	</g>
	<g>
		<polygon class="st0" points="1366.7,2686.8 1366.7,2654.6 1357.9,2623.7 1276.4,2660.9 1308.5,2580 1279.4,2592.2 1279.4,2568.5 
			1217.2,2592 1217.2,2530.8 1194.9,2524.2 1196.9,2517.5 1224.2,2525.6 1224.2,2581.9 1286.4,2558.4 1286.4,2581.7 1321.1,2567.1 
			1289.3,2647.4 1362.4,2614 1373.7,2653.7 1373.7,2671.9 1412.3,2639.8 1422.9,2672.3 1436.3,2656.7 1450.4,2678.7 1444.5,2682.5 
			1435.5,2668.4 1420,2686.3 1408.8,2651.8 		"/>
	</g>
	<g>
		<polygon class="st0" points="1674.6,2556.1 1668,2553.9 1691.3,2486.5 1701.8,2497 1685.6,2446.1 1714.8,2446.1 1699,2398.5 
			1719,2362.4 1755.9,2406.7 1750.5,2411.2 1720.2,2374.7 1706.6,2399.2 1724.5,2453.1 1695.2,2453.1 1717.2,2522.3 1694.2,2499.3 
					"/>
	</g>
	<g>
		<polygon class="st0" points="1715.3,2615.1 1709.2,2611.7 1743.6,2550 1808.5,2594.1 1808.5,2549.1 1852.2,2572.7 1852.2,2535.9 
			1877.1,2556.2 1869.2,2518.7 1905.5,2566.4 1899.9,2570.6 1882.5,2547.7 1888,2574.1 1859.2,2550.6 1859.2,2584.4 1815.5,2560.9 
			1815.5,2607.3 1746,2560 		"/>
	</g>
	<g>
		<polygon class="st0" points="1779.2,1866.6 1760.6,1809.2 1748.7,1864.5 1705.1,1826.1 1685.4,1853 1659.3,1797.2 1665.7,1794.3 
			1686.7,1839.3 1703.9,1815.8 1744.3,1851.4 1759.3,1782.3 1780.9,1849.2 1823.9,1772.2 1823.9,1831.1 1873.1,1769.2 
			1893.5,1807.7 1912.7,1746.5 1912.7,1713.5 1919.7,1713.5 1919.7,1747.6 1895.2,1825.8 1871.9,1782 1816.9,1851.2 1816.9,1799.1 
					"/>
	</g>
	<g>
		<polygon class="st0" points="1670.6,2809.6 1664.4,2806.4 1699.1,2738.8 1710.6,2751.4 1728.7,2689.3 1756.1,2725.8 1761,2636.6 
			1802.2,2663 1788.2,2600.6 1792.2,2588.4 1798.8,2590.6 1795.5,2600.9 1812.8,2678.1 1767.3,2649 1762.1,2745.4 1731.5,2704.7 
			1713.9,2765.2 1700.7,2750.9 		"/>
	</g>
	<g>
		<polygon class="st0" points="1176.8,2788 1175.4,2787.8 1060,2776.2 1060.7,2769.2 1174.8,2780.7 1227.2,2742.5 1260.8,2672.8 
			1267.1,2675.8 1232.7,2747.2 		"/>
	</g>
	<g>
		<polygon class="st0" points="1349.6,2805.8 1333.8,2805.8 1269.8,2776.9 1228,2747.7 1232,2742 1273.3,2770.8 1335.3,2798.8 
			1349.6,2798.8 		"/>
	</g>
	<g>
		<polygon class="st0" points="1374.5,2762.1 1367.6,2761.2 1373.7,2715.7 1331.9,2667.8 1337.2,2663.2 1381,2713.5 		"/>
	</g>
	<g>
		<polygon class="st0" points="1435.7,2745.1 1432.6,2706.7 1400.4,2688.7 1403.8,2682.6 1439.2,2702.4 1442.6,2744.6 		"/>
	</g>
	<g>
		<path class="st0" d="M1380.9,2823.9l-34.7-19.6V2761l8.8-23.4l25.9,34.8V2823.9z M1353.1,2800.2l20.7,11.7v-37.2l-16.9-22.6
			l-3.8,10.2V2800.2z"/>
	</g>
	<g>
		<polygon class="st0" points="1416.3,2782.1 1409.4,2780.7 1421.6,2719.9 1430.2,2767.2 1423.3,2768.5 1421.3,2757.2 		"/>
	</g>
	<g>
		
			<rect x="1380.6" y="2803.8" transform="matrix(0.4366 -0.8996 0.8996 0.4366 -1749.3816 2828.9883)" class="st0" width="7" height="15"/>
	</g>
	<g>
		<polygon class="st0" points="1859,2777.1 1822.6,2777.1 1734.7,2770 1721.4,2716.1 1728.2,2714.4 1740.3,2763.4 1823.1,2770.1 
			1859,2770.1 		"/>
	</g>
	<g>
		<path class="st0" d="M1864,2750.7l-8.2-13.7l-0.1-0.4c-4.1-14.1-9.6-27.3-12.2-29.4h-46.4l-8.5-20.2l6.5-2.7l6.7,15.9h42.2
			c2.1,0,8.5,0,18.4,34l7.7,12.9L1864,2750.7z"/>
	</g>
	<g>
		<path class="st0" d="M1886,2785.7l-30.4-5.1v-10.9l-8.2-29.8l32.4,9L1886,2785.7z M1862.5,2774.7l14.9,2.5l-3.8-22.8l-16.3-4.5
			l5.2,18.9V2774.7z"/>
	</g>
	<g>
		<polygon class="st0" points="1899,2739.8 1883.5,2697.1 1865.3,2697.1 1849.6,2677.3 1855.1,2673 1868.7,2690.1 1888.4,2690.1 
			1905.6,2737.4 		"/>
	</g>
	<g>
		<polygon class="st0" points="1914.9,2783.9 1907.8,2776.8 1886.2,2772.9 1891.7,2727.8 1912.3,2749.5 1922.9,2768.3 
			1916.8,2771.8 1906.6,2753.7 1896.9,2743.4 1894,2767.2 1911.1,2770.3 1919.8,2778.9 		"/>
	</g>
	<g>
		
			<rect x="1880.1" y="2768.3" transform="matrix(0.9406 -0.3395 0.3395 0.9406 -828.9918 804.5834)" class="st0" width="10.3" height="7"/>
	</g>
	<g>
		<polygon class="st0" points="1928.5,2716.5 1913.8,2678.6 1893.1,2678.6 1864.9,2656.9 1869.2,2651.4 1895.5,2671.6 
			1918.6,2671.6 1935,2714 		"/>
	</g>
	<g>
		<polygon class="st0" points="1883.8,2659.8 1875.3,2639.1 1844.9,2648.3 1842.9,2641.6 1879.3,2630.6 1886.7,2648.5 
			1921.1,2620.9 1925.5,2626.4 		"/>
	</g>
	<g>
		<path class="st0" d="M1624.2,691.9l-52-11.9l-20.2-101.8l77.9,57.1L1624.2,691.9z M1578.1,674.1l39.8,9.1l4.5-44.7l-60.1-44.1
			L1578.1,674.1z"/>
	</g>
	<g>
		<path class="st0" d="M1848.2,655.3H1798l-10.6-38.8l20-69.6l31.1-15L1848.2,655.3z M1803.3,648.3h37.3l-8.3-105.7l-19.1,9.2
			l-18.6,64.7L1803.3,648.3z"/>
	</g>
	<g>
		<polygon class="st0" points="1712.5,1425.9 1503.9,1298.3 1480.1,1221.9 1369.3,1155.4 1372.9,1149.4 1486,1217.3 1509.8,1293.7 
			1704.9,1413.1 1700.1,1303.2 1717.9,1239.6 1724.7,1241.5 1707.2,1304 		"/>
	</g>
	<g>
		<polygon class="st0" points="1863.4,1402.9 1863.4,1314.2 1840.6,1239.1 1847.3,1237.1 1870.4,1313.1 1870.4,1385.7 
			1939.6,1314.5 1962.5,1201.2 1963.1,1200.5 2089,1051.9 2094.4,1056.4 1969,1204.4 1946.1,1317.9 		"/>
	</g>
	<g>
		<polygon class="st0" points="2114,1159.8 2148.8,1015.5 2155.6,1017.2 2124.8,1145 2186.9,1107.3 2205.1,1038.1 2211.8,1039.9 
			2193,1111.8 		"/>
	</g>
	<g>
		<polygon class="st0" points="1210.8,1608.5 1153.6,1448.4 1160.2,1446 1203.8,1568.1 1203.8,1440.7 1275.7,1371.3 1226.6,1307.5 
			1203.8,1165.6 1210.7,1164.4 1233.3,1304.7 1285,1372 1210.8,1443.7 		"/>
	</g>
	<g>
		<path class="st0" d="M1626.8,1644.7H1463l50.2-86.1l27.5-41.3l-112.4-31.4l88.3-35.1l99.7,69.1l74,50l75.3,17.4L1626.8,1644.7z
			 M1475.1,1637.7h150.3l117.2-48.5l-55.3-12.8l-0.5-0.4l-74.5-50.4l-96.7-67l-65.6,26l101.7,28.4l-32.7,49.3L1475.1,1637.7z"/>
	</g>
	<g>
		<path class="st0" d="M1897.3,1615.5l15.7-69.5l1-0.8l153.2-118.7l29,41.2l-29.8,29.8l62.1,62.1l-110-8.1l-15.6,14.5l-0.5,0.2
			L1897.3,1615.5z M1919.3,1550l-12,53.1l91.7-42.9l17-15.8l94.3,7l-53.8-53.8l30.6-30.6l-21.4-30.4L1919.3,1550z"/>
	</g>
	<g>
		<polygon class="st0" points="1806.4,1695.1 1775.6,1695.1 1740,1678.9 1742.9,1672.5 1777.1,1688.1 1802.5,1688.1 1842.8,1621.2 
			1893.4,1654.6 1915.5,1637.3 1966.5,1654.7 1988.9,1622.9 2075.6,1606.9 2059.7,1584.8 2160.4,1584.8 2160.4,1512.6 2210.8,1558 
			2206.1,1563.2 2167.4,1528.3 2167.4,1591.8 2073.3,1591.8 2087.7,1611.7 1992.9,1629.3 1969.2,1663 1916.8,1645.1 1893.8,1663.2 
			1845,1631 		"/>
	</g>
	<g>
		<polygon class="st0" points="1430.8,1903.7 1466,1838.7 1393.9,1838.7 1446.9,1738.8 1341.3,1763.5 1367.6,1640.5 1374.5,1642 
			1350.4,1754.1 1460.3,1728.5 1405.5,1831.7 1477.7,1831.7 1447.4,1887.7 1517.1,1853.5 1526.7,1866.7 1534.3,1819.6 
			1541.2,1820.7 1530.9,1884.4 1514.9,1862.4 		"/>
	</g>
	<g>
		<polygon class="st0" points="2122.9,1853.1 2075,1810.3 2075,1851.1 1989.3,1805.6 1992.6,1799.4 2068,1839.5 2068,1794.7 
			2115.9,1837.5 2115.9,1795.4 2143.6,1816.8 2143.6,1752.8 2160.4,1762.4 2160.4,1713.5 2167.4,1713.5 2167.4,1774.5 
			2150.6,1764.9 2150.6,1831 2122.9,1809.6 		"/>
	</g>
	<g>
		<path class="st0" d="M1363.5,2155.6l-9.2-4.8c-15.9-8.3-60.2-29.8-74-29.8c-17.2,0-54-30.2-62.6-37.4L1160,2099l-30.4-85.4
			l-71.8,25.4l-21.9-110.8l-92.4,35.3l16-106.1l6.9,1l-14.2,94.2l89-34l21.9,111l70.8-25l30.6,85.9l55.1-14.8l1.4,1.2
			c12,10.3,46.1,37,59.5,37c14.1,0,50.9,17.4,68.1,26l-29-61.9h-41.1l-31.9-55.4h-20v-37.3l-20.5,13.7l-50.5-98.5l-60.3,35.6l3-8.9
			c0.2-0.5,17.5-52.6,17.5-69.4c0-0.6-0.1-0.8-0.1-0.8v0c0,0-4.1-2.7-28.1,10.8c-12.9,7.2-24.9,15.5-25,15.5l-4.4,3l-22.9-117.4
			l6.9-1.3l20.9,107c4.6-3,12.3-7.9,20.4-12.5c24.3-13.8,31.8-13.3,35.6-11.3c1.4,0.8,3.9,2.7,3.9,6.9c0,13.7-9.9,46.9-15,62.8
			l50.7-29.9l50.3,98.1l24.9-16.6v43.4h17l31.9,55.4h41.5L1363.5,2155.6z"/>
	</g>
	<g>
		<path class="st0" d="M1709.9,2265.5l-11.7-61.4h-15.7v-76.9l60.4-80.8l-12.4,86.4l24.8-37.3l21.6,71.4h33.6l0.5,2.9
			c7.1,41.9,2,45.4,0.3,46.5c-1.7,1.1-3.7,1.1-5.6-0.1c-4.7-2.9-24.4-1.4-37.5,0.7L1709.9,2265.5z M1689.5,2197.1h14.5l10.5,55.4
			l50.6-42.2l0.9-0.2c5.3-0.9,30.8-4.8,41.3-0.8c0.9-5.5-0.6-21.2-2.8-35.4h-32.9l-18.8-62.1l-33.7,50.8l13-90l-42.6,56.9V2197.1z"
			/>
	</g>
</g>
</svg>
